<svg id="Layer_1" data-name="Layer 1" xmlns="http://www.w3.org/2000/svg" viewBox="0 0 1920 250"><defs><style>.cls-1,.cls-2,.cls-3{fill:#1b1464;stroke:#1b1464;stroke-miterlimit:10;}.cls-1{stroke-width:0.5px;}.cls-3{stroke-width:5px;}</style></defs><path class="cls-1" d="M841.17,114c-1.11-.49-1.32-.84-1.32-2.37,0-3.83.28-8,.35-9.12s.27-1.81.83-1.81.7.63.7,1.18a15.15,15.15,0,0,0,.62,3.56c1.53,5.15,5.64,7,10,7,6.26,0,9.33-4.25,9.33-7.94,0-3.41-1-6.61-6.83-11.14l-3.2-2.5c-7.66-6-10.3-10.86-10.3-16.5,0-7.66,6.4-13.16,16.08-13.16a33.6,33.6,0,0,1,9.26,1.18c.63.14,1,.35,1,.84,0,.9-.27,2.92-.27,8.35,0,1.53-.21,2.09-.77,2.09s-.7-.42-.7-1.25a8.37,8.37,0,0,0-1.81-4.6c-1-1.32-3.06-3.41-7.58-3.41-5.16,0-8.29,3-8.29,7.17,0,3.2,1.6,5.64,7.38,10l1.95,1.46C866,89.46,869,94.27,869,100.88A14,14,0,0,1,862.4,113a20.11,20.11,0,0,1-11.07,2.86A24.16,24.16,0,0,1,841.17,114Z"/><path class="cls-1" d="M874,92.46c0-10.1,7.1-23.19,25.68-23.19,15.46,0,25.07,8.57,25.07,22.14s-9.89,24.23-25.69,24.23C881.2,115.64,874,103,874,92.46Zm41.63,1.11c0-13.09-7.87-21.16-17.76-21.16C891,72.41,883,76,883,90.65c0,12.18,7,21.79,18.51,21.79C905.84,112.44,915.59,110.42,915.59,93.57Z"/><path class="cls-1" d="M932.64,87.24c0-9,0-10.66-.07-12.54s-.7-2.64-2.65-3.2a11.15,11.15,0,0,0-2.43-.21c-.63,0-1-.21-1-.62s.49-.56,1.4-.56c3.2,0,7.1.14,8.28.14,3.06,0,7.1-.14,9.19-.14,11.07,0,13,5.71,13,8.84,0,4.6-3.41,8.15-6.89,10.37,5,1.61,11.27,5.85,11.27,12.81,0,6.34-5,12.88-16.29,12.88-.69,0-2.78-.07-4.87-.21s-4.25-.14-5.22-.14c-.7,0-2,.07-3.48.07s-3,.14-4.25.14c-.76,0-1.18-.21-1.18-.62s.21-.63,1-.63a9,9,0,0,0,2.16-.21c1.25-.28,1.6-1.39,1.81-3.13.28-2.51.28-7.17.28-12.6Zm7.93,1c0,.49.21.56.42.63a13,13,0,0,0,2.86.21c2,0,3.76-.21,4.8-1a7.75,7.75,0,0,0,2.79-6.26c0-4-2.37-8.91-7.66-8.91a16.72,16.72,0,0,0-2.65.13c-.42.07-.56.35-.56,1Zm0,17.4c0,3.9.21,5.09,2.16,5.85a11.26,11.26,0,0,0,4.39.7c3.27,0,7.52-1.81,7.52-8.36a13,13,0,0,0-5.78-10.51,8.71,8.71,0,0,0-5.29-1.53h-2.65c-.21,0-.35.07-.35.42Z"/><path class="cls-1" d="M976.7,100c-.35,0-.42.07-.55.41l-3.28,7.94A10.82,10.82,0,0,0,972,112c0,1,.56,1.67,2.43,1.67h.91c.77,0,.91.28.91.63s-.35.62-1,.62c-2,0-4.87-.21-6.82-.21-.63,0-3.9.21-7.1.21-.77,0-1.12-.14-1.12-.62a.61.61,0,0,1,.7-.63c.56,0,1.25-.07,1.81-.07,2.78-.42,3.83-2.23,5.08-5.22l16-37.25c.7-1.67,1.19-2.36,1.81-2.36.91,0,1.19.55,1.81,1.88,1.47,3.27,11.7,27.5,15.6,36.48,2.36,5.36,4.1,6.12,5.22,6.33a14.62,14.62,0,0,0,2.3.21c.55,0,.83.21.83.63s-.35.62-2.64.62-6.62,0-11.77-.14c-1.11-.07-1.81-.07-1.81-.48s.14-.56.77-.63a.93.93,0,0,0,.55-1.32l-4.73-11.91a.59.59,0,0,0-.63-.41Zm13.09-3.28c.28,0,.35-.14.28-.34l-5.78-15c-.07-.21-.14-.56-.28-.56s-.28.35-.35.56l-5.91,15c-.14.27,0,.41.21.41Z"/><path class="cls-1" d="M1018.4,106.8c.14,4.59.9,6,2.09,6.4a10.33,10.33,0,0,0,3.2.42c.7,0,1,.28,1,.63s-.55.62-1.39.62c-4,0-6.82-.21-7.93-.21-.56,0-3.49.21-6.62.21-.83,0-1.39-.07-1.39-.62,0-.35.42-.63,1-.63a12.58,12.58,0,0,0,2.79-.28c1.6-.42,1.81-2,1.88-7.17l.56-35.09c0-1.18.41-2,1-2s1.6.9,2.64,2c.77.76,10,10.16,18.87,18.86,4.18,4.11,12.32,12.46,13.23,13.3h.28L1049,76.86c-.07-3.62-.63-4.66-2.09-5.22a10.21,10.21,0,0,0-3.2-.35c-.77,0-1-.27-1-.62s.63-.56,1.54-.56c3.2,0,6.47.14,7.79.14.7,0,3-.14,6-.14.84,0,1.39.07,1.39.56s-.35.62-1,.62a6.15,6.15,0,0,0-1.88.21c-1.67.49-2.16,1.53-2.23,4.88l-.7,37.31c0,1.32-.48,1.88-1,1.88a3.69,3.69,0,0,1-2.51-1.25c-3.83-3.55-11.48-10.86-17.89-17.06-6.68-6.4-13.16-13.57-14.34-14.62h-.21Z"/><path class="cls-1" d="M1084.6,114c-1.12-.49-1.33-.84-1.33-2.37,0-3.83.28-8,.35-9.12s.28-1.81.84-1.81.69.63.69,1.18a14.71,14.71,0,0,0,.63,3.56c1.53,5.15,5.64,7,10,7,6.26,0,9.32-4.25,9.32-7.94,0-3.41-1-6.61-6.82-11.14l-3.2-2.5c-7.66-6-10.3-10.86-10.3-16.5,0-7.66,6.4-13.16,16.08-13.16a33.66,33.66,0,0,1,9.26,1.18c.62.14,1,.35,1,.84,0,.9-.28,2.92-.28,8.35,0,1.53-.21,2.09-.76,2.09s-.7-.42-.7-1.25a8.45,8.45,0,0,0-1.81-4.6c-1-1.32-3.06-3.41-7.59-3.41-5.15,0-8.28,3-8.28,7.17,0,3.2,1.6,5.64,7.38,10l2,1.46c8.42,6.33,11.41,11.14,11.41,17.75a14,14,0,0,1-6.54,12.11,20.11,20.11,0,0,1-11.07,2.86A24.13,24.13,0,0,1,1084.6,114Z"/><path class="cls-1" d="M1122.67,87.24c0-9,0-10.66-.06-12.54s-.77-2.71-2.09-3.13a7.84,7.84,0,0,0-2.23-.28c-.63,0-1-.14-1-.69,0-.35.49-.49,1.47-.49,2.29,0,6.47.14,8.21.14,1.53,0,5.5-.14,7.87-.14.76,0,1.25.14,1.25.49,0,.55-.35.69-1,.69a8.39,8.39,0,0,0-1.81.21c-1.67.28-2.16,1.12-2.3,3.2-.14,1.88-.14,3.55-.14,12.54V97.68c0,5.71,0,10.44.28,12.95.21,1.6.62,2.5,2.43,2.78a22.89,22.89,0,0,0,3.14.21c.69,0,1,.35,1,.63s-.49.62-1.18.62c-4,0-8.22-.21-9.89-.21-1.39,0-5.57.21-8,.21-.77,0-1.19-.21-1.19-.62s.21-.63,1-.63a9,9,0,0,0,2.16-.21c1.25-.28,1.6-1.11,1.81-2.85.27-2.44.27-7.17.27-12.88Z"/><path class="cls-1" d="M1151.36,106.8c.13,4.59.9,6,2.08,6.4a10.39,10.39,0,0,0,3.21.42c.69,0,1,.28,1,.63s-.56.62-1.39.62c-4,0-6.82-.21-7.94-.21-.56,0-3.48.21-6.61.21-.84,0-1.39-.07-1.39-.62,0-.35.41-.63,1-.63a12.43,12.43,0,0,0,2.78-.28c1.61-.42,1.81-2,1.88-7.17l.56-35.09c0-1.18.42-2,1-2s1.6.9,2.64,2c.77.76,10,10.16,18.87,18.86,4.17,4.11,12.32,12.46,13.22,13.3h.28L1182,76.86c-.07-3.62-.63-4.66-2.09-5.22a10.24,10.24,0,0,0-3.2-.35c-.77,0-1-.27-1-.62s.63-.56,1.53-.56c3.2,0,6.48.14,7.8.14.7,0,3-.14,6-.14.83,0,1.39.07,1.39.56s-.35.62-1,.62a6.12,6.12,0,0,0-1.87.21c-1.68.49-2.16,1.53-2.23,4.88l-.7,37.31c0,1.32-.49,1.88-1,1.88a3.67,3.67,0,0,1-2.51-1.25c-3.83-3.55-11.49-10.86-17.89-17.06-6.68-6.4-13.16-13.57-14.34-14.62h-.21Z"/><path class="cls-1" d="M1239.28,110.91c0,1.6,0,1.67-.77,2.08-4.11,2-10.16,2.65-15,2.65-15,0-28.33-6.82-28.33-23.18a21.92,21.92,0,0,1,10.72-19.36c5.85-3.41,11.35-3.83,16.5-3.83a69.37,69.37,0,0,1,10.86,1,48.47,48.47,0,0,0,4.87.63c.7.07.84.27.84.69a80,80,0,0,0-.42,9.75c0,.9-.35,1.32-.84,1.32s-.55-.28-.62-.76A7.89,7.89,0,0,0,1235,77c-1.81-1.88-6.41-4.52-13.3-4.52-3.34,0-7.58.07-11.83,3.48-3.41,2.78-5.64,7.17-5.64,14.41,0,12.74,8.21,22,21.3,22a10,10,0,0,0,4.32-.63,2,2,0,0,0,1.18-2.09v-5.43c0-2.92,0-5.15-.07-7-.07-2-.69-2.65-2.64-3.2a11,11,0,0,0-2.37-.21c-.56,0-1-.28-1-.63s.49-.55,1.33-.55c3.2,0,7.59.14,9.4.14s5.15-.14,7.17-.14c.83,0,1.25.07,1.25.55a.71.71,0,0,1-.77.63,8.4,8.4,0,0,0-1.67.21c-1.67.28-2.29,1.11-2.36,3.2-.07,1.81-.07,4.18-.07,7.1Z"/><path class="cls-1" d="M1284.66,89.39c.14,0,.35-.07.35-.41V87.72c0-9-.07-11.14-.14-13s-.7-2.64-2.64-3.2a11,11,0,0,0-2.37-.21c-.7,0-1-.21-1-.62s.42-.56,1.33-.56c3.27,0,7.59.14,9.19.14s5.5-.14,7.86-.14c.91,0,1.33.14,1.33.56s-.42.62-1.12.62a10.23,10.23,0,0,0-1.81.21c-1.6.28-2.09,1.12-2.23,3.2-.13,1.88-.13,3.55-.13,12.54V97.68c0,5.43,0,10.09.27,12.67.21,1.67.56,2.78,2.44,3.06a22.12,22.12,0,0,0,3.13.21c.63,0,1,.35,1,.63s-.49.62-1.26.62c-4,0-8-.21-9.67-.21-1.39,0-5.71.21-8.08.21-.83,0-1.32-.21-1.32-.62s.28-.63,1-.63a9.22,9.22,0,0,0,2.23-.21c1.25-.28,1.6-1.39,1.81-3.13.28-2.51.28-7,.28-12.46V93.29a.37.37,0,0,0-.35-.35h-23.11c-.21,0-.42.07-.42.35v4.53c0,5.43.07,10,.35,12.53.21,1.67.56,2.78,2.37,3.06a22.64,22.64,0,0,0,3.13.21c.7,0,1,.35,1,.63s-.48.62-1.25.62c-4,0-8.21-.21-10-.21-1.4,0-5.43.21-7.87.21-.77,0-1.18-.21-1.18-.62s.2-.63,1-.63a9,9,0,0,0,2.16-.21c1.25-.28,1.6-1.39,1.81-3.13.28-2.51.28-7.17.28-12.6V87.24c0-9,0-10.66-.07-12.54s-.7-2.64-2.65-3.2a11.21,11.21,0,0,0-2.43-.21c-.63,0-1-.21-1-.62s.49-.56,1.32-.56c3.28,0,7.31.14,9,.14,1.47,0,5.71-.14,8.15-.14.83,0,1.25.14,1.25.56s-.35.62-1.11.62a8.85,8.85,0,0,0-1.74.21c-1.67.28-2.16,1.12-2.3,3.2-.14,1.88-.14,4-.14,13V89c0,.34.21.41.42.41Z"/><path class="cls-1" d="M1328.58,82.43c0-10.58,0-12.53-.14-14.76s-.69-3.48-3-4a14.24,14.24,0,0,0-2.71-.21c-.77,0-1.19-.14-1.19-.63s.49-.63,1.53-.63c3.69,0,8.08.21,9.89.21s6.06-.21,8.77-.21c1,0,1.46.14,1.46.63s-.42.63-1.25.63a10.43,10.43,0,0,0-2,.21c-1.88.34-2.44,1.53-2.58,4-.13,2.23-.13,4.18-.13,14.76V95.31c0,3,.2,6.34.2,9.82a37.15,37.15,0,0,1-1.67,12.32c-1.46,4.25-5.15,9-11.83,13.16-.91.55-2,1.11-3.48,1.81a3.1,3.1,0,0,1-1.39.41.54.54,0,0,1-.56-.55c0-.35.35-.63,1.53-1.26a14.2,14.2,0,0,0,3.34-2.64c5.29-5.36,5.22-12.32,5.22-26Z"/><path class="cls-1" d="M1351.28,87.24c0-9,0-10.66-.07-12.54s-.7-2.64-2.65-3.2a11.25,11.25,0,0,0-2.44-.21c-.62,0-1-.21-1-.62s.49-.56,1.39-.56c3.2,0,7.1.14,8.84.14,2,0,15.53.07,16.71,0a25.84,25.84,0,0,0,2.58-.35,7.08,7.08,0,0,1,1-.28c.35,0,.42.28.42.56a26,26,0,0,0-.49,3.83c-.07.62-.21,3.2-.35,3.9-.07.28-.2,1-.69,1s-.49-.28-.49-.76a5.51,5.51,0,0,0-.42-2.16c-.48-1-1-1.88-4-2.16-1-.14-8.36-.28-9.61-.28-.28,0-.42.21-.42.56V88.7c0,.35.07.62.42.62,1.39,0,9.33,0,10.72-.14s2.37-.27,2.92-.9c.49-.42.7-.77,1-.77s.48.28.48.63-.13,1.32-.48,4.32c-.14,1.18-.28,3.55-.28,4s-.07,1.33-.63,1.33c-.41,0-.55-.21-.55-.49-.07-.63-.07-1.39-.21-2.16-.35-1.18-1.12-2.09-3.41-2.29-1.12-.14-8.08-.28-9.61-.28-.28,0-.35.28-.35.62v4.74c0,2-.07,7,0,8.77.14,4,2,4.94,8.28,4.94a16.65,16.65,0,0,0,5.78-.76c1.53-.7,2.23-2,2.65-4.39.14-.63.28-.91.69-.91s.56.77.56,1.4a40.88,40.88,0,0,1-.83,6.54c-.42,1.53-1,1.53-3.28,1.53-4.59,0-8.28-.07-11.27-.21s-5.29-.14-7.1-.14c-.7,0-2,.07-3.49.07s-3,.14-4.24.14c-.77,0-1.19-.21-1.19-.62s.21-.63,1-.63a9,9,0,0,0,2.16-.21c1.25-.28,1.6-1.39,1.81-3.13.28-2.51.28-7.17.28-12.6Z"/><path class="cls-1" d="M1386.5,87.24c0-9,0-10.66-.07-12.54s-.7-2.64-2.65-3.2a11.15,11.15,0,0,0-2.43-.21c-.63,0-1-.21-1-.62s.49-.56,1.4-.56c3.2,0,7.1.14,8.84.14,2,0,15.52.07,16.71,0s2.08-.28,2.57-.35a7.18,7.18,0,0,1,1-.28c.34,0,.41.28.41.56a27.06,27.06,0,0,0-.48,3.83c-.07.62-.21,3.2-.35,3.9-.07.28-.21,1-.7,1s-.49-.28-.49-.76a5.48,5.48,0,0,0-.41-2.16c-.49-1-1-1.88-4-2.16-1-.14-8.35-.28-9.61-.28-.28,0-.42.21-.42.56V88.7c0,.35.07.62.42.62,1.39,0,9.33,0,10.72-.14s2.37-.27,2.93-.9c.48-.42.69-.77,1-.77a.57.57,0,0,1,.49.63c0,.35-.14,1.32-.49,4.32-.14,1.18-.28,3.55-.28,4s-.07,1.33-.62,1.33-.56-.21-.56-.49c-.07-.63-.07-1.39-.21-2.16-.35-1.18-1.11-2.09-3.41-2.29-1.11-.14-8.08-.28-9.61-.28-.28,0-.35.28-.35.62v4.74c0,2-.07,7,0,8.77.14,4,2,4.94,8.29,4.94a16.69,16.69,0,0,0,5.78-.76c1.53-.7,2.22-2,2.64-4.39.14-.63.28-.91.7-.91s.56.77.56,1.4a39.77,39.77,0,0,1-.84,6.54c-.42,1.53-1,1.53-3.27,1.53-4.6,0-8.29-.07-11.28-.21s-5.29-.14-7.1-.14c-.7,0-2,.07-3.48.07s-3,.14-4.25.14c-.76,0-1.18-.21-1.18-.62s.21-.63,1-.63a9,9,0,0,0,2.16-.21c1.25-.28,1.6-1.39,1.81-3.13.28-2.51.28-7.17.28-12.6Z"/><path class="cls-1" d="M1425.55,106.8c.14,4.59.91,6,2.09,6.4a10.33,10.33,0,0,0,3.2.42c.7,0,1.05.28,1.05.63s-.56.62-1.39.62c-4,0-6.83-.21-7.94-.21-.56,0-3.48.21-6.61.21-.84,0-1.4-.07-1.4-.62,0-.35.42-.63,1-.63a12.49,12.49,0,0,0,2.78-.28c1.6-.42,1.81-2,1.88-7.17l.56-35.09c0-1.18.42-2,1-2,.77,0,1.6.9,2.65,2,.76.76,10,10.16,18.86,18.86,4.18,4.11,12.33,12.46,13.23,13.3h.28l-.63-26.32c-.07-3.62-.62-4.66-2.09-5.22a10.18,10.18,0,0,0-3.2-.35c-.76,0-1-.27-1-.62s.62-.56,1.53-.56c3.2,0,6.47.14,7.8.14.69,0,3-.14,6-.14.84,0,1.4.07,1.4.56s-.35.62-1.05.62a6.22,6.22,0,0,0-1.88.21c-1.67.49-2.16,1.53-2.23,4.88l-.69,37.31c0,1.32-.49,1.88-1,1.88a3.64,3.64,0,0,1-2.5-1.25c-3.83-3.55-11.49-10.86-17.89-17.06-6.69-6.4-13.16-13.57-14.34-14.62h-.21Z"/><path class="cls-1" d="M1479.43,100c-.35,0-.42.07-.56.41l-3.27,7.94a10.58,10.58,0,0,0-.9,3.62c0,1,.55,1.67,2.43,1.67h.91c.76,0,.9.28.9.63s-.35.62-1,.62c-2,0-4.87-.21-6.82-.21-.63,0-3.9.21-7.1.21-.77,0-1.12-.14-1.12-.62a.61.61,0,0,1,.7-.63c.55,0,1.25-.07,1.81-.07,2.78-.42,3.83-2.23,5.08-5.22l16-37.25c.7-1.67,1.18-2.36,1.81-2.36.91,0,1.18.55,1.81,1.88,1.46,3.27,11.7,27.5,15.6,36.48,2.36,5.36,4.1,6.12,5.22,6.33a14.61,14.61,0,0,0,2.29.21q.84,0,.84.63c0,.48-.35.62-2.65.62s-6.61,0-11.76-.14c-1.12-.07-1.81-.07-1.81-.48s.14-.56.76-.63a.93.93,0,0,0,.56-1.32l-4.73-11.91a.59.59,0,0,0-.63-.41Zm13.09-3.28c.28,0,.35-.14.28-.34l-5.78-15c-.07-.21-.14-.56-.28-.56s-.28.35-.35.56l-5.92,15c-.13.27,0,.41.21.41Z"/><path class="cls-1" d="M1533.1,82.43c0-10.58,0-12.53-.14-14.76s-.7-3.48-3-4a14.28,14.28,0,0,0-2.72-.21c-.76,0-1.18-.14-1.18-.63s.49-.63,1.53-.63c3.69,0,8.07.21,10.16.21,1.67,0,6.06-.21,8.57-.21,1,0,1.53.14,1.53.63s-.42.63-1.12.63a10.51,10.51,0,0,0-2,.21c-1.87.34-2.43,1.53-2.57,4-.14,2.23-.14,4.18-.14,14.76v9.75c0,10.09,2,14.34,5.43,17.12a12.86,12.86,0,0,0,8.7,2.86,13.68,13.68,0,0,0,9.61-3.76c3.83-3.83,4-10.1,4-17.27v-8.7c0-10.58,0-12.53-.14-14.76s-.7-3.48-3-4a13.34,13.34,0,0,0-2.5-.21c-.77,0-1.19-.14-1.19-.63s.49-.63,1.47-.63c3.55,0,7.93.21,8,.21.84,0,5.22-.21,7.94-.21,1,0,1.46.14,1.46.63s-.42.63-1.25.63a10.35,10.35,0,0,0-2,.21c-1.88.34-2.44,1.53-2.58,4-.14,2.23-.14,4.18-.14,14.76v7.45c0,7.73-.76,15.94-6.61,21-4.94,4.24-10,5-14.48,5-3.69,0-10.37-.21-15.46-4.81-3.55-3.2-6.19-8.35-6.19-18.44Z"/><path class="cls-1" d="M1591.57,106.8c.14,4.59.91,6,2.09,6.4a10.37,10.37,0,0,0,3.2.42c.7,0,1.05.28,1.05.63s-.56.62-1.39.62c-4,0-6.83-.21-7.94-.21-.56,0-3.48.21-6.61.21-.84,0-1.4-.07-1.4-.62,0-.35.42-.63,1-.63a12.49,12.49,0,0,0,2.78-.28c1.6-.42,1.81-2,1.88-7.17l.56-35.09c0-1.18.42-2,1-2,.77,0,1.6.9,2.65,2,.77.76,10,10.16,18.87,18.86,4.17,4.11,12.32,12.46,13.22,13.3h.28l-.63-26.32c-.07-3.62-.62-4.66-2.08-5.22a10.27,10.27,0,0,0-3.21-.35c-.76,0-1-.27-1-.62s.63-.56,1.53-.56c3.2,0,6.48.14,7.8.14.69,0,3-.14,6-.14.84,0,1.4.07,1.4.56s-.35.62-1.05.62a6.22,6.22,0,0,0-1.88.21c-1.67.49-2.15,1.53-2.22,4.88l-.7,37.31c0,1.32-.49,1.88-1,1.88a3.67,3.67,0,0,1-2.5-1.25c-3.83-3.55-11.49-10.86-17.89-17.06-6.69-6.4-13.16-13.57-14.34-14.62h-.21Z"/><path class="cls-1" d="M1642.81,87.24c0-9,0-10.66-.07-12.54s-.77-2.71-2.09-3.13a7.8,7.8,0,0,0-2.23-.28c-.63,0-1-.14-1-.69,0-.35.48-.49,1.46-.49,2.29,0,6.47.14,8.21.14,1.53,0,5.5-.14,7.87-.14.77,0,1.25.14,1.25.49,0,.55-.35.69-1,.69a8.39,8.39,0,0,0-1.81.21c-1.67.28-2.16,1.12-2.3,3.2-.14,1.88-.14,3.55-.14,12.54V97.68c0,5.71,0,10.44.28,12.95.21,1.6.63,2.5,2.44,2.78a22.64,22.64,0,0,0,3.13.21c.69,0,1,.35,1,.63s-.48.62-1.18.62c-4,0-8.22-.21-9.89-.21-1.39,0-5.57.21-8,.21-.77,0-1.18-.21-1.18-.62s.2-.63,1-.63a9,9,0,0,0,2.16-.21c1.25-.28,1.6-1.11,1.81-2.85.28-2.44.28-7.17.28-12.88Z"/><path class="cls-1" d="M1661.88,75.89c-1.39-3.27-2.3-3.83-4.53-4.39a10.71,10.71,0,0,0-2.36-.21c-.56,0-.7-.27-.7-.62s.63-.56,1.53-.56c3.27,0,6.75.14,8.91.14,1.53,0,4.74-.14,7.8-.14.77,0,1.46.14,1.46.56s-.42.62-1,.62a4.5,4.5,0,0,0-2.37.42,1.29,1.29,0,0,0-.63,1.18,17,17,0,0,0,1.4,4.46l10.3,26.52h.21c2.64-6.12,10.51-25.2,12-29.1a8.14,8.14,0,0,0,.56-2.15c0-.63-.28-.84-.84-1.05a9.25,9.25,0,0,0-2.43-.28c-.56,0-1-.21-1-.62s.56-.56,1.74-.56c3.07,0,5.78.14,6.55.14,1,0,3.9-.14,5.78-.14.76,0,1.25.14,1.25.56s-.35.62-1,.62a4.84,4.84,0,0,0-3,.7c-.77.56-1.6,1.46-3.2,5.22-2.44,5.57-4,8.77-7.38,16-3.9,8.64-6.75,15.11-8.15,18.1-1.53,3.41-2.08,4.32-2.92,4.32s-1.32-.77-2.51-3.55Z"/><path class="cls-1" d="M1708.52,87.24c0-9,0-10.66-.07-12.54s-.7-2.64-2.65-3.2a11.15,11.15,0,0,0-2.43-.21c-.63,0-1-.21-1-.62s.49-.56,1.4-.56c3.2,0,7.1.14,8.84.14,2,0,15.52.07,16.7,0a25.84,25.84,0,0,0,2.58-.35,7.18,7.18,0,0,1,1-.28c.34,0,.41.28.41.56a25.37,25.37,0,0,0-.48,3.83c-.07.62-.21,3.2-.35,3.9-.07.28-.21,1-.7,1s-.49-.28-.49-.76a5.66,5.66,0,0,0-.41-2.16c-.49-1-1-1.88-4-2.16-1-.14-8.35-.28-9.61-.28-.28,0-.42.21-.42.56V88.7c0,.35.07.62.42.62,1.39,0,9.33,0,10.72-.14s2.37-.27,2.93-.9c.48-.42.69-.77,1-.77a.57.57,0,0,1,.49.63c0,.35-.14,1.32-.49,4.32-.14,1.18-.28,3.55-.28,4s-.07,1.33-.62,1.33-.56-.21-.56-.49c-.07-.63-.07-1.39-.21-2.16-.35-1.18-1.11-2.09-3.41-2.29-1.11-.14-8.08-.28-9.61-.28-.28,0-.35.28-.35.62v4.74c0,2-.07,7,0,8.77.14,4,2,4.94,8.29,4.94a16.69,16.69,0,0,0,5.78-.76c1.53-.7,2.22-2,2.64-4.39.14-.63.28-.91.7-.91s.56.77.56,1.4a39.77,39.77,0,0,1-.84,6.54c-.42,1.53-1,1.53-3.27,1.53-4.6,0-8.29-.07-11.28-.21s-5.29-.14-7.1-.14c-.7,0-2,.07-3.48.07s-3,.14-4.25.14c-.76,0-1.18-.21-1.18-.62s.21-.63,1-.63a9,9,0,0,0,2.16-.21c1.25-.28,1.6-1.39,1.81-3.13.28-2.51.28-7.17.28-12.6Z"/><path class="cls-1" d="M1743.74,87.24c0-9,0-10.66-.07-12.54s-.69-2.64-2.64-3.2a11.25,11.25,0,0,0-2.44-.21c-.63,0-1-.21-1-.62s.48-.56,1.39-.56c3.2,0,7.1.14,8.35.14,2.09,0,7.66-.14,9.54-.14,3.9,0,8.35.35,11.63,2.51a10.32,10.32,0,0,1,4.31,8.14c0,4.39-2.5,8.29-8.49,13.09,5.43,6.68,9.75,12,13.44,15.73,3.41,3.41,5.56,3.69,6.54,3.9a5.68,5.68,0,0,0,1.46.14.71.71,0,0,1,.77.63c0,.48-.42.62-1.19.62h-5.84c-3.42,0-5.09-.34-6.69-1.18-2.64-1.32-4.94-4.11-8.35-8.7-2.44-3.2-5-7.17-5.78-8.08a1.41,1.41,0,0,0-1.11-.42l-5.5-.13a.43.43,0,0,0-.49.48v.84c0,5.5.07,10.09.35,12.6.21,1.74.48,2.85,2.36,3.13a23.2,23.2,0,0,0,3,.21.7.7,0,0,1,.76.63c0,.41-.48.62-1.25.62-3.55,0-8.63-.21-9.54-.21-1.18,0-5.08.21-7.52.21-.76,0-1.18-.21-1.18-.62s.21-.63,1-.63a8.89,8.89,0,0,0,2.15-.21c1.26-.28,1.61-1.39,1.81-3.13.28-2.51.28-7.17.28-12.6Zm7.8,4.59c0,.63.14.84.56,1a16.68,16.68,0,0,0,4.66.56c2.44,0,3.27-.21,4.32-1,1.88-1.33,4-3.9,4-8.77,0-8.36-5.7-10.52-9.32-10.52a21.94,21.94,0,0,0-3.62.21c-.42.14-.56.35-.56.84Z"/><path class="cls-1" d="M1783.63,114.11c-1-.42-1.18-.7-1.18-2,0-3.2.27-6.89.34-7.87s.28-1.53.77-1.53.63.56.63,1a11,11,0,0,0,.55,3.06c1.33,4.38,5.92,5.85,9.75,5.85,5.29,0,8.49-3.35,8.49-7.52,0-2.58-.62-5.15-6-8.36l-3.56-2.09c-7.23-4.24-9.6-8.21-9.6-13.43,0-7.24,7-11.91,15.45-11.91a36.1,36.1,0,0,1,8.7,1c.56.14.84.35.84.77,0,.76-.21,2.43-.21,7.1,0,1.25-.28,1.88-.76,1.88s-.63-.35-.63-1a6.69,6.69,0,0,0-1.6-3.9c-.91-1.11-2.86-2.78-6.82-2.78-4.39,0-8.36,2.3-8.36,6.33,0,2.65,1,4.74,6.48,7.8l2.5,1.39c8.08,4.46,10.58,9,10.58,14.34,0,4.39-1.67,7.94-6.12,11.07-2.93,2.09-7,2.44-10.24,2.44C1790,115.64,1786.27,115.29,1783.63,114.11Z"/><path class="cls-1" d="M1819.69,87.24c0-9,0-10.66-.07-12.54s-.77-2.71-2.09-3.13a7.8,7.8,0,0,0-2.23-.28c-.62,0-1-.14-1-.69,0-.35.49-.49,1.46-.49,2.3,0,6.47.14,8.21.14,1.54,0,5.5-.14,7.87-.14.77,0,1.25.14,1.25.49,0,.55-.34.69-1,.69a8.46,8.46,0,0,0-1.81.21c-1.67.28-2.16,1.12-2.3,3.2-.14,1.88-.14,3.55-.14,12.54V97.68c0,5.71,0,10.44.28,12.95.21,1.6.63,2.5,2.44,2.78a22.74,22.74,0,0,0,3.13.21c.7,0,1,.35,1,.63s-.49.62-1.19.62c-4,0-8.21-.21-9.88-.21-1.4,0-5.57.21-8,.21-.77,0-1.18-.21-1.18-.62s.21-.63,1-.63a9,9,0,0,0,2.16-.21c1.25-.28,1.6-1.11,1.81-2.85.28-2.44.28-7.17.28-12.88Z"/><path class="cls-1" d="M1852.68,73.73l-9.11.21c-3.56.07-5,.49-5.92,1.81a6.82,6.82,0,0,0-1.05,2c-.14.48-.27.76-.69.76s-.56-.34-.56-1c0-1,1.18-6.68,1.32-7.17.14-.77.35-1.12.7-1.12s1.11.49,2.64.7a57.23,57.23,0,0,0,6.13.28H1871a27,27,0,0,0,4.18-.28c1-.14,1.46-.28,1.67-.28.42,0,.49.35.49,1.26,0,1.25-.14,5.63-.14,7.17-.07.62-.21,1-.56,1s-.62-.28-.69-1.18l-.07-.63c-.14-1.53-1.74-3.34-7.24-3.41l-7.73-.14v24c0,5.43.07,10.09.35,12.67.21,1.67.55,2.78,2.36,3.06a22.89,22.89,0,0,0,3.14.21c.69,0,1,.35,1,.63s-.49.62-1.18.62c-4,0-8.15-.21-9.89-.21-1.39,0-5.57.21-8,.21-.77,0-1.19-.21-1.19-.62s.21-.63,1-.63a8.64,8.64,0,0,0,2.16-.21c1.25-.28,1.6-1.39,1.81-3.13.27-2.51.27-7.17.27-12.6Z"/><path class="cls-1" d="M1892.08,99.49a11.78,11.78,0,0,0-1.39-6.2c-.42-.9-8.77-13.92-10.93-17.05-1.53-2.16-2.78-3.55-4-4.18a6,6,0,0,0-2.57-.77c-.49,0-.91-.21-.91-.62s.42-.56,1.19-.56c1,0,5.63.14,7.65.14,1.33,0,4.18-.14,7-.14.55,0,.9.14.9.56s-.42.48-1.39.76c-.49.14-.84.42-.84.91a4.6,4.6,0,0,0,.77,2c1.11,1.81,9.12,15.66,10.16,17.33.77-1.39,8.22-14.06,9.12-15.87a7.77,7.77,0,0,0,.91-3.13c0-.56-.28-1.12-1.33-1.33-.55-.14-1.11-.21-1.11-.69s.35-.56,1-.56c2,0,4.17.14,6,.14,1.32,0,5.36-.14,6.55-.14.69,0,1.11.14,1.11.49s-.49.69-1.18.69a7.47,7.47,0,0,0-2.65.7,8.22,8.22,0,0,0-3.2,2.78c-2,2.37-10.79,16.43-11.91,18.94a13.85,13.85,0,0,0-.76,5.92v4.73c0,1,0,3.41.14,5.92.14,1.74.69,2.85,2.5,3.13a23.41,23.41,0,0,0,3.07.21c.69,0,1,.35,1,.63s-.49.62-1.32.62c-3.83,0-7.94-.21-9.61-.21s-5.64.21-7.93.21c-.84,0-1.33-.14-1.33-.62,0-.28.28-.63,1-.63a9.45,9.45,0,0,0,2.16-.21c1.25-.28,1.74-1.39,1.87-3.13.21-2.51.21-4.94.21-5.92Z"/><path class="cls-1" d="M844.94,167.12c-.28,0-.39.12-.5.45l-3,8a11,11,0,0,0-.83,3.4c0,1,.5,1.73,2.23,1.73h.83c.67,0,.84.11.84.44s-.34.56-1,.56c-1.78,0-4.18-.17-5.9-.17-.62,0-3.68.17-6.57.17-.73,0-1.06-.11-1.06-.56s.22-.44.67-.44,1.28-.06,1.72-.11c2.56-.34,3.62-2.23,4.74-5l14-35c.67-1.61,1-2.23,1.56-2.23s.84.5,1.4,1.79c1.33,3.06,10.24,25.78,13.81,34.24,2.11,5,3.73,5.8,4.9,6.07a12,12,0,0,0,2.34.23c.44,0,.72.05.72.44s-.5.56-2.56.56-6.07,0-10.53-.11c-1-.06-1.67-.06-1.67-.45s.22-.44.78-.5a.9.9,0,0,0,.5-1.28l-4.45-11.81a.55.55,0,0,0-.56-.39Zm11.36-2.78c.28,0,.34-.17.28-.33l-5-13.76c-.06-.22-.11-.5-.28-.5s-.28.28-.33.5L845.83,164c-.05.22,0,.39.23.39Z"/><path class="cls-1" d="M884.37,167.9c0,6.07,0,9.08,1.06,10,.83.73,2.73,1,6.51,1,2.62,0,4.51-.05,5.74-1.33a5.69,5.69,0,0,0,1.22-2.84c.06-.45.17-.73.56-.73s.45.51.45,1.06a36.11,36.11,0,0,1-.73,5.46c-.33,1.06-.55,1.28-3.12,1.28-3.5,0-6.34-.06-8.79-.17s-4.51-.11-6.52-.11c-.56,0-1.61.06-2.78.06s-2.4.11-3.4.11c-.61,0-1-.17-1-.5s.17-.5.78-.5a7.29,7.29,0,0,0,1.73-.17c1-.22,1.28-1.11,1.45-2.51.22-2,.22-5.73.22-10.08v-8.35c0-7.18,0-8.52-.06-10s-.55-2.12-2.11-2.57a6.7,6.7,0,0,0-1.62-.16c-.56,0-.83-.17-.83-.5s.33-.45,1.05-.45c2.29,0,5.41.11,6.74.11,1.17,0,5.18-.11,7.08-.11.72,0,1.05.11,1.05.45s-.27.5-.89.5a11,11,0,0,0-1.89.16c-1.34.23-1.73.9-1.84,2.57-.11,1.5-.11,2.84-.11,10Z"/><path class="cls-1" d="M907.59,146c.11-.78.56-1.23.95-1.23s.83.23,1.5,1.51l13.14,26.39L936.33,146c.39-.78.83-1.17,1.28-1.17s.94.5,1.11,1.51l4.46,29.23c.44,2.95.89,4.24,2.39,4.68a9.72,9.72,0,0,0,2.79.45c.44,0,.78.16.78.44s-.56.56-1.29.56c-1.22,0-8.18-.22-10.13-.34-1.17,0-1.45-.27-1.45-.55s.22-.39.56-.5.39-.67.22-2l-2.73-20.49h-.16l-10.53,21.16c-1.11,2.23-1.39,2.67-2,2.67s-1.17-.94-1.95-2.39c-1.17-2.17-5.07-9.41-5.62-10.75-.39-.89-3.29-6.85-4.9-10.13H909l-2.34,18.48a15.87,15.87,0,0,0-.17,2.23c0,.89.67,1.23,1.51,1.39a8.35,8.35,0,0,0,1.72.23c.45,0,.78.22.78.44,0,.45-.44.56-1.17.56-2.06,0-4.28-.17-5.18-.17s-3.28.17-4.84.17c-.5,0-.89-.11-.89-.56,0-.22.28-.44.78-.44a8.94,8.94,0,0,0,1.5-.11c1.34-.17,1.78-2.07,2-3.62Z"/><path class="cls-1" d="M948.75,163.73c0-8.08,5.68-18.55,20.55-18.55,12.36,0,20,6.85,20,17.71s-7.9,19.38-20.55,19.38C954.54,182.27,948.75,172.14,948.75,163.73Zm33.3.89c0-10.47-6.29-16.93-14.2-16.93-5.46,0-11.86,2.89-11.86,14.59,0,9.74,5.56,17.43,14.81,17.43C974.25,179.71,982.05,178.1,982.05,164.62Z"/><path class="cls-1" d="M995.69,159.55c0-7.18,0-8.52-.05-10s-.56-2.12-2.12-2.57a9.16,9.16,0,0,0-1.95-.16c-.5,0-.83-.17-.83-.5s.39-.45,1.11-.45c2.56,0,5.68.11,6.68.11,1.67,0,6.13-.11,7.63-.11,3.12,0,6.68.28,9.3,2a8.26,8.26,0,0,1,3.45,6.51c0,3.51-2,6.63-6.79,10.47,4.34,5.35,7.8,9.64,10.75,12.59,2.73,2.73,4.45,2.95,5.23,3.12a4.63,4.63,0,0,0,1.17.11.56.56,0,0,1,.61.5c0,.39-.33.5-.94.5h-4.68c-2.73,0-4.06-.28-5.35-.95-2.11-1.06-3.95-3.28-6.68-7-2-2.56-4-5.73-4.62-6.46a1.12,1.12,0,0,0-.89-.33l-4.4-.11a.35.35,0,0,0-.39.39v.66c0,4.4.06,8.08.28,10.08.16,1.4.39,2.29,1.89,2.51a18.79,18.79,0,0,0,2.4.17.56.56,0,0,1,.61.5c0,.33-.39.5-1,.5-2.84,0-6.91-.17-7.63-.17-1,0-4.07.17-6,.17-.61,0-.94-.17-.94-.5s.16-.5.78-.5a7.2,7.2,0,0,0,1.72-.17c1-.22,1.28-1.11,1.45-2.51.22-2,.22-5.73.22-10.08Zm6.24,3.68c0,.5.11.66.44.83a13.28,13.28,0,0,0,3.74.45c1.95,0,2.61-.17,3.45-.78,1.5-1.06,3.17-3.12,3.17-7,0-6.68-4.56-8.41-7.46-8.41a18,18,0,0,0-2.9.17c-.33.11-.44.28-.44.67Z"/><path class="cls-1" d="M1033.23,169.74c-.28,0-.34.06-.45.34l-2.62,6.34a8.58,8.58,0,0,0-.72,2.9c0,.84.44,1.34,2,1.34h.72c.61,0,.73.22.73.5s-.28.5-.78.5c-1.62,0-3.9-.17-5.46-.17-.5,0-3.12.17-5.68.17-.61,0-.89-.11-.89-.5a.48.48,0,0,1,.55-.5c.45,0,1-.06,1.45-.06,2.23-.33,3.07-1.78,4.07-4.18l12.81-29.79c.55-1.34.94-1.89,1.44-1.89.73,0,1,.44,1.45,1.5,1.17,2.62,9.36,22,12.48,29.18,1.89,4.29,3.28,4.9,4.17,5.07a12.08,12.08,0,0,0,1.84.17c.45,0,.67.16.67.5s-.28.5-2.12.5-5.29,0-9.41-.11c-.89-.06-1.45-.06-1.45-.39s.12-.45.62-.5a.75.75,0,0,0,.44-1.06l-3.79-9.52a.46.46,0,0,0-.5-.34Zm10.47-2.62c.22,0,.27-.11.22-.27l-4.62-12c-.06-.17-.12-.45-.23-.45s-.22.28-.27.45l-4.74,12c-.11.22,0,.33.17.33Z"/><path class="cls-1" d="M1063.24,173.7c.5,0,.67.27,1.39,1.39a5.51,5.51,0,0,1,1.23,2.89,8.76,8.76,0,0,1-.72,2.68,33.2,33.2,0,0,1-4.4,7.4c-.39.34-.62.67-1,.67a.61.61,0,0,1-.45-.56c0-.27.34-.66.45-.94a9.82,9.82,0,0,0,1.61-4.85c0-3.17-2.33-4.06-2.33-4.84C1059.07,175.59,1061.57,173.7,1063.24,173.7Z"/><path class="cls-1" d="M1087.3,155.71c0-8.47,0-10-.11-11.81s-.56-2.78-2.4-3.17a11.47,11.47,0,0,0-2.17-.17c-.61,0-.95-.11-.95-.5s.39-.5,1.23-.5c2.95,0,6.46.17,8.13.17,1.34,0,4.85-.17,6.85-.17.84,0,1.22.11,1.22.5s-.33.5-.89.5a8.48,8.48,0,0,0-1.61.17c-1.5.28-1.95,1.22-2.06,3.17-.11,1.78-.11,3.34-.11,11.81v7.79c0,8.08,1.61,11.48,4.34,13.7a10.33,10.33,0,0,0,7,2.29,10.91,10.91,0,0,0,7.69-3c3.06-3.06,3.23-8.07,3.23-13.81v-7c0-8.47,0-10-.11-11.81s-.56-2.78-2.4-3.17a10.81,10.81,0,0,0-2-.17c-.62,0-1-.11-1-.5s.39-.5,1.17-.5c2.84,0,6.35.17,6.4.17.67,0,4.18-.17,6.35-.17.78,0,1.17.11,1.17.5s-.33.5-1,.5a8.59,8.59,0,0,0-1.62.17c-1.5.28-2,1.22-2.06,3.17-.11,1.78-.11,3.34-.11,11.81v6c0,6.18-.61,12.75-5.29,16.76a16.59,16.59,0,0,1-11.58,4c-2.95,0-8.3-.17-12.36-3.84-2.84-2.57-5-6.69-5-14.76Z"/><path class="cls-1" d="M1139.76,148.75l-7.3.16c-2.84.06-4,.39-4.73,1.45a5.8,5.8,0,0,0-.84,1.62c-.11.39-.22.61-.55.61s-.45-.28-.45-.78c0-.78.95-5.35,1.06-5.74.11-.61.28-.89.56-.89s.89.39,2.11.56a45.32,45.32,0,0,0,4.9.22h19.88a22.15,22.15,0,0,0,3.35-.22c.77-.11,1.16-.22,1.33-.22.34,0,.39.28.39,1,0,1-.11,4.51-.11,5.74-.06.5-.17.78-.45.78s-.5-.23-.55-.95l-.06-.5c-.11-1.23-1.39-2.68-5.79-2.73l-6.18-.11V167.9c0,4.35.05,8.08.28,10.14.16,1.34.44,2.23,1.89,2.45a18.55,18.55,0,0,0,2.51.17c.55,0,.78.27.78.5s-.39.5-1,.5c-3.23,0-6.52-.17-7.91-.17-1.11,0-4.45.17-6.4.17-.61,0-1-.17-1-.5s.17-.5.78-.5a7,7,0,0,0,1.73-.17c1-.22,1.28-1.11,1.45-2.51.22-2,.22-5.73.22-10.08Z"/><path class="cls-1" d="M1172.22,148.75l-7.29.16c-2.84.06-4,.39-4.73,1.45a5.29,5.29,0,0,0-.84,1.62c-.11.39-.22.61-.56.61s-.44-.28-.44-.78c0-.78.94-5.35,1.06-5.74.11-.61.27-.89.55-.89s.89.39,2.12.56a45.2,45.2,0,0,0,4.9.22h19.88a21.89,21.89,0,0,0,3.34-.22c.78-.11,1.17-.22,1.34-.22.33,0,.39.28.39,1,0,1-.11,4.51-.11,5.74-.06.5-.17.78-.45.78s-.5-.23-.56-.95l0-.5c-.11-1.23-1.39-2.68-5.79-2.73l-6.18-.11V167.9c0,4.35,0,8.08.27,10.14.17,1.34.45,2.23,1.9,2.45a18.52,18.52,0,0,0,2.5.17c.56,0,.78.27.78.5s-.39.5-.94.5c-3.23,0-6.52-.17-7.91-.17-1.11,0-4.46.17-6.41.17-.61,0-.94-.17-.94-.5s.16-.5.78-.5a6.91,6.91,0,0,0,1.72-.17c1-.22,1.28-1.11,1.45-2.51.22-2,.22-5.73.22-10.08Z"/><path class="cls-1" d="M1197,169.74c-.28,0-.33.06-.45.34l-2.61,6.34a8.66,8.66,0,0,0-.73,2.9c0,.84.45,1.34,1.95,1.34h.73c.61,0,.72.22.72.5s-.28.5-.78.5c-1.61,0-3.9-.17-5.46-.17-.5,0-3.12.17-5.68.17-.61,0-.89-.11-.89-.5s.17-.5.56-.5,1-.06,1.45-.06c2.22-.33,3.06-1.78,4.06-4.18l12.81-29.79c.56-1.34.95-1.89,1.45-1.89.72,0,1,.44,1.45,1.5,1.17,2.62,9.35,22,12.47,29.18,1.89,4.29,3.29,4.9,4.18,5.07a12,12,0,0,0,1.83.17c.45,0,.67.16.67.5s-.28.5-2.11.5-5.29,0-9.41-.11c-.89-.06-1.45-.06-1.45-.39s.11-.45.61-.5a.75.75,0,0,0,.45-1.06l-3.79-9.52a.47.47,0,0,0-.5-.34Zm10.47-2.62c.22,0,.28-.11.22-.27l-4.62-12c-.06-.17-.11-.45-.22-.45s-.23.28-.28.45l-4.73,12c-.12.22,0,.33.16.33Z"/><path class="cls-1" d="M1227.25,159.55c0-7.18,0-8.52-.06-10s-.56-2.12-2.12-2.57a9.16,9.16,0,0,0-2-.16c-.5,0-.83-.17-.83-.5s.39-.45,1.11-.45c2.56,0,5.68.11,6.68.11,1.68,0,6.13-.11,7.63-.11,3.12,0,6.69.28,9.3,2a8.24,8.24,0,0,1,3.46,6.51c0,3.51-2,6.63-6.8,10.47,4.35,5.35,7.8,9.64,10.75,12.59,2.73,2.73,4.46,2.95,5.24,3.12a4.63,4.63,0,0,0,1.17.11.56.56,0,0,1,.61.5c0,.39-.34.5-1,.5h-4.68c-2.73,0-4.06-.28-5.34-.95-2.12-1.06-4-3.28-6.69-7-1.94-2.56-4-5.73-4.62-6.46a1.11,1.11,0,0,0-.89-.33l-4.4-.11a.35.35,0,0,0-.39.39v.66c0,4.4.06,8.08.28,10.08.17,1.4.39,2.29,1.89,2.51a19,19,0,0,0,2.4.17.56.56,0,0,1,.61.5c0,.33-.39.5-1,.5-2.84,0-6.91-.17-7.63-.17-1,0-4.07.17-6,.17-.61,0-.94-.17-.94-.5s.17-.5.78-.5a7.2,7.2,0,0,0,1.72-.17c1-.22,1.29-1.11,1.45-2.51.23-2,.23-5.73.23-10.08Zm6.23,3.68c0,.5.11.66.45.83a13.2,13.2,0,0,0,3.73.45c1.95,0,2.62-.17,3.45-.78,1.5-1.06,3.18-3.12,3.18-7,0-6.68-4.57-8.41-7.47-8.41a17.77,17.77,0,0,0-2.89.17c-.34.11-.45.28-.45.67Z"/><path class="cls-1" d="M1264.78,169.74c-.28,0-.34.06-.45.34l-2.61,6.34a8.41,8.41,0,0,0-.73,2.9c0,.84.45,1.34,2,1.34h.73c.61,0,.72.22.72.5s-.28.5-.78.5c-1.62,0-3.9-.17-5.46-.17-.5,0-3.12.17-5.68.17-.61,0-.89-.11-.89-.5s.17-.5.56-.5,1-.06,1.44-.06c2.23-.33,3.07-1.78,4.07-4.18l12.81-29.79c.56-1.34,1-1.89,1.45-1.89.72,0,.94.44,1.44,1.5,1.17,2.62,9.36,22,12.48,29.18,1.89,4.29,3.28,4.9,4.18,5.07a12,12,0,0,0,1.83.17c.45,0,.67.16.67.5s-.28.5-2.11.5-5.3,0-9.42-.11c-.89-.06-1.44-.06-1.44-.39s.11-.45.61-.5a.74.74,0,0,0,.44-1.06l-3.78-9.52a.47.47,0,0,0-.5-.34Zm10.47-2.62c.22,0,.28-.11.22-.27l-4.62-12c-.06-.17-.11-.45-.22-.45s-.23.28-.28.45l-4.74,12c-.11.22,0,.33.17.33Z"/><path class="cls-1" d="M1301.48,161.67h.22c1.67-1.79,8.8-8.8,10.25-10.42s2.45-2.67,2.45-3.51a.87.87,0,0,0-.67-.94c-.45-.11-.67-.23-.67-.5s.28-.45.78-.45c1.06,0,3.73.11,5.07.11,1.5,0,4.23-.11,5.73-.11.5,0,.84.11.84.45s-.28.5-.73.5a9.64,9.64,0,0,0-2.84.55,14.93,14.93,0,0,0-5.17,3.51c-1.56,1.45-8.86,8.36-10.36,10.08,1.72,2.23,11.36,12.25,13.25,14,2.17,2,4.07,4,6.68,5.06a7,7,0,0,0,3,.62c.39,0,.67.22.67.5s-.28.5-1.17.5h-4.29a31,31,0,0,1-3.39-.11c-2.62-.23-4.24-1.23-6.35-3.07s-11.53-12.75-12.59-14.2l-.5-.66h-.22v4.28c0,4.35,0,8.08.11,10.14.11,1.34.56,2.23,1.78,2.45a18.19,18.19,0,0,0,2.4.17.62.62,0,0,1,.66.5c0,.33-.39.5-.94.5-2.73,0-6.24-.17-7.47-.17s-4.23.17-6.18.17c-.61,0-.94-.17-.94-.5s.16-.5.78-.5a7.2,7.2,0,0,0,1.72-.17c1-.22,1.28-1.11,1.45-2.51.22-2,.22-5.73.22-10.08v-8.35c0-7.18,0-8.52,0-10s-.56-2.12-2.12-2.57a9.16,9.16,0,0,0-2-.16c-.5,0-.83-.17-.83-.5s.39-.45,1.11-.45c2.56,0,5.68.11,6.85.11s4.68-.11,6.29-.11c.73,0,1.06.11,1.06.45s-.28.5-.67.5a6.74,6.74,0,0,0-1.39.16c-1.34.23-1.73.9-1.84,2.57,0,1.5,0,2.84,0,10Z"/><path class="cls-1" d="M1355.83,161.28c.11,0,.28-.06.28-.34v-1c0-7.18-.06-8.91-.11-10.41s-.56-2.12-2.12-2.57a8.92,8.92,0,0,0-1.89-.16c-.56,0-.84-.17-.84-.5s.34-.45,1.06-.45c2.62,0,6.07.11,7.35.11s4.4-.11,6.29-.11c.73,0,1.06.11,1.06.45s-.33.5-.89.5a8.32,8.32,0,0,0-1.45.16c-1.28.23-1.67.9-1.78,2.57-.11,1.5-.11,2.84-.11,10v8.35c0,4.35,0,8.08.22,10.14.17,1.34.45,2.23,1.95,2.45a18,18,0,0,0,2.51.17c.5,0,.78.27.78.5s-.39.5-1,.5c-3.17,0-6.4-.17-7.74-.17-1.11,0-4.56.17-6.46.17-.66,0-1-.17-1-.5s.22-.5.78-.5a7.46,7.46,0,0,0,1.78-.17c1-.22,1.28-1.11,1.45-2.51.22-2,.22-5.62.22-10V164.4a.3.3,0,0,0-.28-.28h-18.49c-.17,0-.33,0-.33.28V168c0,4.34,0,8,.28,10,.16,1.34.44,2.23,1.89,2.45a18.52,18.52,0,0,0,2.5.17c.56,0,.78.27.78.5s-.39.5-1,.5c-3.17,0-6.57-.17-8-.17-1.11,0-4.34.17-6.29.17-.62,0-1-.17-1-.5s.17-.5.78-.5a7.35,7.35,0,0,0,1.73-.17c1-.22,1.28-1.11,1.44-2.51.23-2,.23-5.73.23-10.08v-8.35c0-7.18,0-8.52-.06-10s-.56-2.12-2.12-2.57a9.12,9.12,0,0,0-1.94-.16c-.51,0-.84-.17-.84-.5s.39-.45,1.06-.45c2.62,0,5.85.11,7.18.11,1.17,0,4.57-.11,6.52-.11.67,0,1,.11,1,.45s-.28.5-.89.5a7.13,7.13,0,0,0-1.39.16c-1.34.23-1.73.9-1.84,2.57-.11,1.5-.11,3.23-.11,10.41v1c0,.28.16.34.33.34Z"/><path class="cls-1" d="M1378.05,169.74c-.28,0-.33.06-.45.34l-2.61,6.34a8.66,8.66,0,0,0-.73,2.9c0,.84.45,1.34,2,1.34h.73c.61,0,.72.22.72.5s-.28.5-.78.5c-1.61,0-3.9-.17-5.46-.17-.5,0-3.12.17-5.68.17-.61,0-.89-.11-.89-.5s.17-.5.56-.5,1-.06,1.45-.06c2.22-.33,3.06-1.78,4.06-4.18l12.81-29.79c.56-1.34,1-1.89,1.45-1.89.72,0,.94.44,1.45,1.5,1.17,2.62,9.35,22,12.47,29.18,1.89,4.29,3.29,4.9,4.18,5.07a12,12,0,0,0,1.83.17c.45,0,.67.16.67.5s-.28.5-2.11.5-5.29,0-9.41-.11c-.9-.06-1.45-.06-1.45-.39s.11-.45.61-.5a.75.75,0,0,0,.45-1.06l-3.79-9.52a.47.47,0,0,0-.5-.34Zm10.47-2.62c.22,0,.28-.11.22-.27l-4.62-12c-.06-.17-.11-.45-.22-.45s-.23.28-.28.45l-4.74,12c-.11.22,0,.33.17.33Z"/><path class="cls-1" d="M1411.41,175.2c.11,3.67.72,4.79,1.67,5.12a8.25,8.25,0,0,0,2.56.34c.56,0,.83.22.83.5s-.44.5-1.11.5c-3.17,0-5.46-.17-6.35-.17-.44,0-2.78.17-5.29.17-.67,0-1.11-.06-1.11-.5,0-.28.33-.5.78-.5a9.79,9.79,0,0,0,2.22-.23c1.29-.33,1.45-1.61,1.51-5.73l.44-28.07c0-.95.34-1.61.84-1.61s1.28.72,2.12,1.55c.61.62,8,8.14,15.09,15.1,3.34,3.28,9.85,10,10.58,10.63h.22l-.5-21.05c-.06-2.89-.5-3.73-1.67-4.17a8.15,8.15,0,0,0-2.56-.28c-.62,0-.78-.23-.78-.5s.5-.45,1.22-.45c2.56,0,5.18.11,6.24.11.56,0,2.39-.11,4.79-.11.67,0,1.11.06,1.11.45s-.28.5-.83.5a5.25,5.25,0,0,0-1.51.16c-1.33.39-1.72,1.23-1.78,3.9l-.55,29.85c0,1.06-.39,1.51-.78,1.51a2.92,2.92,0,0,1-2-1c-3.06-2.84-9.19-8.68-14.31-13.64-5.35-5.12-10.53-10.86-11.47-11.7h-.17Z"/><path class="cls-1" d="M1452.39,159.55c0-7.18,0-8.52-.05-10s-.56-2.12-2.12-2.57a9.16,9.16,0,0,0-2-.16c-.5,0-.83-.17-.83-.5s.39-.45,1.11-.45c2.56,0,5.68.11,7.07.11s5-.11,8-.11c6.12,0,14.36,0,19.71,5.4a16.59,16.59,0,0,1,4.62,12,18.38,18.38,0,0,1-5.34,13.2c-2.23,2.23-7.41,5.57-16.43,5.57-1.78,0-3.9-.17-5.85-.28s-3.73-.28-5-.28c-.55,0-1.61.06-2.78.06s-2.39.11-3.4.11c-.61,0-.94-.17-.94-.5s.16-.5.78-.5a7.2,7.2,0,0,0,1.72-.17c1-.22,1.28-1.11,1.45-2.51.22-2,.22-5.73.22-10.08Zm6.57,5.24c0,5,.06,8.63.12,9.57a8.62,8.62,0,0,0,.55,3.35c.62.89,2.56,1.89,6.41,1.89,4.45,0,7.74-.78,10.69-3.23,3.17-2.62,4.18-6.85,4.18-11.75,0-6-2.4-9.91-4.57-11.81-4.51-4-9.86-4.51-13.7-4.51a10.14,10.14,0,0,0-3,.34.83.83,0,0,0-.61.94c-.06,1.62-.06,5.52-.06,9.25Z"/><path class="cls-2" d="M52.51,71.58v5H45.38v45.69H39.73V99.41H20.05a9.23,9.23,0,0,1-4.31,1.43l-.07.17a76.55,76.55,0,0,0,7.24,9.62,61.78,61.78,0,0,0,9,8.26l-3.63,4.18a57.82,57.82,0,0,1-5.49-4.62,69.72,69.72,0,0,1-4.9-5.15q-2.3-2.67-4.3-5.4c-1.34-1.83-2.56-3.62-3.67-5.39S7.78,99,6.9,97.39s-1.65-3.16-2.31-4.57l4.66-2.51a18.37,18.37,0,0,0,1.27,2.49,7.63,7.63,0,0,0,1.27,1.6,4,4,0,0,0,1.36.85,4.55,4.55,0,0,0,1.53.26,3.74,3.74,0,0,0,3.45-1.84,9.24,9.24,0,0,0,1.11-4.83,18.41,18.41,0,0,0-.34-3.48,28.48,28.48,0,0,0-.87-3.3q-.53-1.57-1.14-3c-.4-.93-.79-1.77-1.15-2.52H0v-5Zm-12.78,5H21.62a37.5,37.5,0,0,1,2.24,6.22A24.78,24.78,0,0,1,24.68,89a18.58,18.58,0,0,1-.22,2.81,12.17,12.17,0,0,1-.73,2.6l.06.07H39.73Z"/><path class="cls-2" d="M63,72.53H58.05L55,66.72a48,48,0,0,0-3.58-5.88,17.81,17.81,0,0,0-3.06-3.32,7.41,7.41,0,0,0-2.84-1.46,13.2,13.2,0,0,0-2.92-.32H36V50.23h6.22a18.43,18.43,0,0,1,3.57.32,10,10,0,0,1,3,1.16A12.25,12.25,0,0,1,51.61,54a31.09,31.09,0,0,1,2.94,3.81c1.05,1.55,2.18,3.41,3.42,5.57s2.65,4.72,4.23,7.67Zm7.62,4H63.46v45.69H57.88V76.57H50.14v-5H70.6Z"/><path class="cls-2" d="M114,76.57h-7.14v45.69h-5.57v-12l-.14,0a20.35,20.35,0,0,1-1.75,1.33,14.68,14.68,0,0,1-2.31,1.25,15.14,15.14,0,0,1-2.94,1,16.1,16.1,0,0,1-3.6.38,17.1,17.1,0,0,1-6.77-1.31,16.48,16.48,0,0,1-5.25-3.5,16.14,16.14,0,0,1-3.42-5,14.92,14.92,0,0,1-1.22-5.93,14,14,0,0,1,1.22-5.82,14.52,14.52,0,0,1,3.35-4.64,16.19,16.19,0,0,1,11-4.19,21.91,21.91,0,0,1,2.35.15,14.47,14.47,0,0,1,2.91.66,17.89,17.89,0,0,1,3.21,1.45,15.43,15.43,0,0,1,3.26,2.5l.14,0V76.57h-33v-5H114ZM79.3,98.87a10.78,10.78,0,0,0,.64,3.67,9.49,9.49,0,0,0,5.14,5.52,10.61,10.61,0,0,0,4.45.87,12.67,12.67,0,0,0,4.35-.75L82.66,91.33a9,9,0,0,0-2.46,3.26A10.17,10.17,0,0,0,79.3,98.87Zm22.09-4.11a28.28,28.28,0,0,0-2.5-2.42,16.22,16.22,0,0,0-2.7-1.86,13.89,13.89,0,0,0-3-1.23,12.67,12.67,0,0,0-3.38-.44,10.17,10.17,0,0,0-1.49.1q-.72.11-1.47.27l11,16.59a11.31,11.31,0,0,0,2.58-3.31,7.8,7.8,0,0,0,.92-3.56Z"/><path class="cls-2" d="M156.25,76.57h-7.14v45.69h-5.6V96.05H127.6c0,1.5,0,2.78,0,3.84a14.38,14.38,0,0,1-.29,2.63,3.08,3.08,0,0,1-.72,1.52,1.79,1.79,0,0,1-1.32.47,5.59,5.59,0,0,1-3.35-1.15,13.18,13.18,0,0,1-2.79-2.79,15.8,15.8,0,0,1-1.92-3.4,8.38,8.38,0,0,1-.71-3,2.71,2.71,0,0,1,.48-1.7,2.86,2.86,0,0,1,1.25-.92,6,6,0,0,1,1.79-.37c.67,0,1.34-.07,2-.07h21.52V76.57H111.59v-5h44.66Z"/><path class="cls-2" d="M195.22,76.57h-7.14v45.69H182.5V76.57h-7.74v-5h7.74a22,22,0,0,1-1.86-8.37,13,13,0,0,1,.81-4.62,9.83,9.83,0,0,1,2.5-3.7,11.72,11.72,0,0,1,4.3-2.45,19.48,19.48,0,0,1,6.22-.88,27.28,27.28,0,0,1,9.09,1.53,40,40,0,0,1,8.55,4.24,65.11,65.11,0,0,1,8.28,6.46c2.73,2.5,5.49,5.21,8.27,8.16h-5.91l-2.53-2.4q-1.59-1.47-3.66-3.16T212,63a45.45,45.45,0,0,0-5.3-3.11,35.1,35.1,0,0,0-5.79-2.26,22.14,22.14,0,0,0-6.07-.86,13.1,13.1,0,0,0-4.16.57,7.09,7.09,0,0,0-2.72,1.6,5.67,5.67,0,0,0-1.48,2.4,9.42,9.42,0,0,0-.44,2.94,20.65,20.65,0,0,0,1.66,7.31h7.55Z"/><path class="cls-2" d="M245.35,71.58v5h-7.14v45.69h-5.64V99.41H212.89a9.23,9.23,0,0,1-4.31,1.43l-.07.17a75.59,75.59,0,0,0,7.24,9.62,61.78,61.78,0,0,0,9,8.26l-3.64,4.18a60.43,60.43,0,0,1-5.49-4.62Q213,116,210.7,113.3t-4.3-5.4c-1.34-1.83-2.56-3.62-3.67-5.39s-2.11-3.47-3-5.12-1.66-3.16-2.31-4.57l4.65-2.51a18.31,18.31,0,0,0,1.28,2.49,7.63,7.63,0,0,0,1.27,1.6,4,4,0,0,0,1.36.85,4.55,4.55,0,0,0,1.53.26A3.75,3.75,0,0,0,211,93.67a9.24,9.24,0,0,0,1.11-4.83,18.41,18.41,0,0,0-.34-3.48,28.48,28.48,0,0,0-.87-3.3q-.52-1.57-1.14-3c-.41-.93-.79-1.77-1.15-2.52H192.84v-5Zm-12.78,5H214.46a37.5,37.5,0,0,1,2.24,6.22,24.77,24.77,0,0,1,.81,6.22,17.37,17.37,0,0,1-.22,2.81,11.11,11.11,0,0,1-.73,2.6l.07.07h15.94Z"/><path class="cls-2" d="M231.25,61.21a4.38,4.38,0,0,1,1.14-3.14A4.16,4.16,0,0,1,237,57.2a4.2,4.2,0,0,1,2.25,2.33,4.7,4.7,0,0,1,.32,1.75,4.35,4.35,0,0,1-1.14,3.13,3.93,3.93,0,0,1-3,1.18,4.11,4.11,0,0,1-1.65-.32,3.83,3.83,0,0,1-1.33-.92,4.49,4.49,0,0,1-1.2-3.14Z"/><path class="cls-2" d="M269.08,112.67a17.16,17.16,0,0,0,2.22-.85,8.62,8.62,0,0,0,2-1.24,6.33,6.33,0,0,0,1.41-1.72,4.7,4.7,0,0,0,.54-2.31,5,5,0,0,0-2.35-4.4,11.88,11.88,0,0,0-6.66-1.58,18.27,18.27,0,0,0-3.55.36,9.77,9.77,0,0,0-3.31,1.29,7.23,7.23,0,0,0-2.45,2.55,7.89,7.89,0,0,0-1,4.09,11.24,11.24,0,0,0,1,4.68,16.31,16.31,0,0,0,2.57,4,22.49,22.49,0,0,0,3.55,3.26,37.77,37.77,0,0,0,3.93,2.58,38.21,38.21,0,0,0,3.69,1.89c1.15.51,2.11.91,2.88,1.21l-2.24,4.69q-2.38-1-4.84-2.23a51.55,51.55,0,0,1-4.78-2.65,36.21,36.21,0,0,1-4.35-3.18,21.11,21.11,0,0,1-3.55-3.84,17.73,17.73,0,0,1-2.38-4.62,16.64,16.64,0,0,1-.87-5.47,15.1,15.1,0,0,1,.77-5,12.39,12.39,0,0,1,2.12-3.79A15.7,15.7,0,0,1,250.69,96a12.39,12.39,0,0,1-.88-4.72,10.28,10.28,0,0,1,.35-2.76,5.28,5.28,0,0,1,1.29-2.26,6.56,6.56,0,0,1,2.6-1.54,13.3,13.3,0,0,1,4.32-.58h15.4V76.57H243v-5h44.29v5h-7.92V89.08H259.8a9.92,9.92,0,0,0-2.23.22,3.57,3.57,0,0,0-1.44.67,2.31,2.31,0,0,0-.77,1.1,5.13,5.13,0,0,0-.22,1.55,6.78,6.78,0,0,0,.41,2.31,9.07,9.07,0,0,0,1.53,2.51,16.92,16.92,0,0,1,4.33-1.51,24.16,24.16,0,0,1,4.95-.49,21.73,21.73,0,0,1,5.59.68,13.68,13.68,0,0,1,4.52,2,9.94,9.94,0,0,1,3,3.5,10.75,10.75,0,0,1,1.1,5,10.55,10.55,0,0,1-.93,4.66,10.75,10.75,0,0,1-2.35,3.2,12.89,12.89,0,0,1-3.08,2.09,30.57,30.57,0,0,1-3.09,1.3Z"/><path class="cls-2" d="M360.25,76.57h-7.14v45.69h-5.57V92.75H336.6l0,.14,1.22,1.44a16.89,16.89,0,0,1,1.64,2.38,17.83,17.83,0,0,1,1.42,3.2,11.75,11.75,0,0,1,.62,3.86,12.6,12.6,0,0,1-.7,4.09,11.42,11.42,0,0,1-2.07,3.64,10.27,10.27,0,0,1-3.49,2.6,11.39,11.39,0,0,1-4.89,1,13,13,0,0,1-5.05-1,16,16,0,0,1-4.18-2.6,20.11,20.11,0,0,1-3.38-3.78A33.58,33.58,0,0,1,315,103.2a44.64,44.64,0,0,1-2-4.86q-.87-2.46-1.48-4.72c-.41-1.51-.74-2.9-1-4.16s-.44-2.33-.57-3.17l5-1A72.76,72.76,0,0,0,317.71,96a37.8,37.8,0,0,0,3.59,7.7,15.59,15.59,0,0,0,4.25,4.64,8.35,8.35,0,0,0,4.76,1.55,5,5,0,0,0,4.55-2.4,6.29,6.29,0,0,0,.83-2.07,9.28,9.28,0,0,0,.23-1.85,8.8,8.8,0,0,0-.57-3,13.59,13.59,0,0,0-1.63-3.16,16.92,16.92,0,0,0-2.67-3,19.72,19.72,0,0,0-3.67-2.65v-4h20.16V76.57H305.77v-5h54.48Z"/><path class="cls-2" d="M378.33,76.57H371.2v45.69h-5.58V76.57h-7.75v-5h8.3a31.76,31.76,0,0,0-1.57-5.93,20,20,0,0,0-2.07-4.12,11.38,11.38,0,0,0-2.35-2.6,10.62,10.62,0,0,0-2.36-1.43,8.84,8.84,0,0,0-2.14-.61,12.74,12.74,0,0,0-1.65-.13,7.39,7.39,0,0,0-3.38.66A5.52,5.52,0,0,0,348.7,59a5,5,0,0,0-.91,1.92,8.69,8.69,0,0,0-.22,1.72c0,.18,0,.55.09,1.1a9.47,9.47,0,0,0,.54,2.09,16.78,16.78,0,0,0,1.41,2.82A18.08,18.08,0,0,0,352.3,72h-5.78a17.86,17.86,0,0,1-3.21-5.08,13.44,13.44,0,0,1-1.07-5.12,10.5,10.5,0,0,1,.75-3.94,8.67,8.67,0,0,1,2.24-3.25A11.2,11.2,0,0,1,349,52.37a15.27,15.27,0,0,1,5.2-.81,14.18,14.18,0,0,1,12,5.88,21.51,21.51,0,0,1,3.2,6.37A41.14,41.14,0,0,1,371,71.58h7.3Z"/><path class="cls-2" d="M420.62,76.57h-7.14v45.69h-5.61V96.05H392c0,1.5,0,2.78,0,3.84a13.55,13.55,0,0,1-.29,2.63,3,3,0,0,1-.71,1.52,1.82,1.82,0,0,1-1.32.47,5.57,5.57,0,0,1-3.35-1.15,12.73,12.73,0,0,1-2.79-2.79,15.8,15.8,0,0,1-1.92-3.4,8.17,8.17,0,0,1-.71-3,2.7,2.7,0,0,1,.47-1.7,3,3,0,0,1,1.26-.92,6,6,0,0,1,1.78-.37c.67,0,1.35-.07,2-.07h21.51V76.57H376v-5h44.66Z"/><path class="cls-2" d="M438.7,76.57h-7.14v45.69H426V76.57h-7.75v-5H438.7Z"/><path class="cls-2" d="M477.67,76.57h-7.14v45.69H465V76.57H457.2v-5H465a22,22,0,0,1-1.87-8.37,13,13,0,0,1,.82-4.62,9.72,9.72,0,0,1,2.5-3.7,11.72,11.72,0,0,1,4.3-2.45,19.48,19.48,0,0,1,6.22-.88A27.28,27.28,0,0,1,486,53.09a40,40,0,0,1,8.55,4.24,65.82,65.82,0,0,1,8.28,6.46c2.73,2.5,5.48,5.21,8.27,8.16H505.2l-2.53-2.4q-1.59-1.47-3.66-3.16T494.42,63a45.45,45.45,0,0,0-5.3-3.11,35.1,35.1,0,0,0-5.79-2.26,22.14,22.14,0,0,0-6.07-.86,13.16,13.16,0,0,0-4.17.57,7.12,7.12,0,0,0-2.71,1.6,5.67,5.67,0,0,0-1.48,2.4,9.43,9.43,0,0,0-.45,2.94,20.69,20.69,0,0,0,1.67,7.31h7.55Z"/><path class="cls-2" d="M518.59,76.57h-7.14v45.69h-5.57V110.12l-.14,0a16.82,16.82,0,0,1-1.6,1.34,11.79,11.79,0,0,1-2.1,1.26,15.46,15.46,0,0,1-2.67.93,13.52,13.52,0,0,1-3.32.38,14.21,14.21,0,0,1-6.13-1.3,15.21,15.21,0,0,1-4.78-3.45,15.71,15.71,0,0,1-3.11-5,16,16,0,0,1-1.1-5.86,14.65,14.65,0,0,1,1.1-5.69A14.09,14.09,0,0,1,495.14,84a19.31,19.31,0,0,1,2.05.13,13.33,13.33,0,0,1,2.67.61,15.87,15.87,0,0,1,3,1.38,12.7,12.7,0,0,1,2.92,2.43l.14,0v-12H475.29v-5h43.3ZM506,94.89a19.59,19.59,0,0,0-4.65-4.16,10.54,10.54,0,0,0-5.71-1.58,8.89,8.89,0,0,0-4.27.95,9,9,0,0,0-2.87,2.4,9.37,9.37,0,0,0-1.63,3.21,12.25,12.25,0,0,0-.51,3.4,11.15,11.15,0,0,0,.57,3.5,9.65,9.65,0,0,0,1.72,3.11A8.75,8.75,0,0,0,491.5,108a8.62,8.62,0,0,0,4,.87,10,10,0,0,0,4.28-.9,11.72,11.72,0,0,0,3.33-2.29,10.33,10.33,0,0,0,2.16-3.13,8.33,8.33,0,0,0,.76-3.37Z"/><path class="cls-2" d="M551.76,71.58h12.72v5h-7.14v52.62h-5.58v-5.81l-.13,0a15.41,15.41,0,0,1-1.24,1,10.6,10.6,0,0,1-1.6,1,10,10,0,0,1-2,.71,12.09,12.09,0,0,1-7.31-.71,11.67,11.67,0,0,1-3.65-2.64,11.52,11.52,0,0,1-2.36-3.82,12.53,12.53,0,0,1-.84-4.55,11.7,11.7,0,0,1,.84-4.47,10.77,10.77,0,0,1,2.31-3.57,10.62,10.62,0,0,1,3.45-2.37,10.79,10.79,0,0,1,4.28-.84,14.28,14.28,0,0,1,1.55.1,9.84,9.84,0,0,1,2,.47,12.41,12.41,0,0,1,2.29,1.09,10.07,10.07,0,0,1,2.28,1.94l.13,0V98.06a22.08,22.08,0,0,1-2.27.32c-.73.05-1.44.08-2.14.08a26.64,26.64,0,0,1-6.75-.78,28.49,28.49,0,0,1-5.22-1.87,72.6,72.6,0,0,1-5.88,4.83c-2.06,1.52-4,2.85-5.85,4L520.56,100c1.57-1,3.23-2.11,5-3.33s3.46-2.49,5.1-3.78a16.58,16.58,0,0,1-3.1-2.85,16.2,16.2,0,0,1-1.95-3,12.94,12.94,0,0,1-1-3,13.67,13.67,0,0,1-.3-2.75,11.4,11.4,0,0,1,.68-4,9.81,9.81,0,0,1,1.9-3.25A9.07,9.07,0,0,1,529.79,72a9,9,0,0,1,3.82-.8,9.38,9.38,0,0,1,3.95.83,9.58,9.58,0,0,1,3.12,2.3,10.42,10.42,0,0,1,2.06,3.39,12.31,12.31,0,0,1-.51,9.56A26.24,26.24,0,0,1,539,92.11a11,11,0,0,0,1.48.57,18.77,18.77,0,0,0,1.94.5c.71.14,1.47.26,2.28.34s1.63.12,2.5.12a22.34,22.34,0,0,0,2.31-.12,17.08,17.08,0,0,0,2.27-.39ZM538,81.91a8.19,8.19,0,0,0-.27-2.11,6.16,6.16,0,0,0-.8-1.8,4.08,4.08,0,0,0-1.31-1.24,3.44,3.44,0,0,0-1.8-.46,3.24,3.24,0,0,0-1.85.51,4.12,4.12,0,0,0-1.26,1.33A6.25,6.25,0,0,0,530,80a8.44,8.44,0,0,0-.24,2,7.87,7.87,0,0,0,1.19,4.25,11.8,11.8,0,0,0,3.43,3.44A18,18,0,0,0,537,85.92,8.44,8.44,0,0,0,538,81.91Zm13.9,30.22a16,16,0,0,0-3.3-2.89,7.35,7.35,0,0,0-4.11-1.12,6.65,6.65,0,0,0-3.06.64,6.18,6.18,0,0,0-2,1.63,6.37,6.37,0,0,0-1.12,2.18,8,8,0,0,0-.34,2.24,7.18,7.18,0,0,0,.39,2.31,6.16,6.16,0,0,0,1.19,2.08,6,6,0,0,0,2,1.49,6.41,6.41,0,0,0,2.83.58,7.59,7.59,0,0,0,3.1-.61,8.19,8.19,0,0,0,2.38-1.56,7.47,7.47,0,0,0,1.53-2.13,5.46,5.46,0,0,0,.54-2.29Z"/><path class="cls-2" d="M582.56,76.57h-7.14v45.69h-5.57V76.57H562.1v-5h7.75A21.79,21.79,0,0,1,568,63.21a13,13,0,0,1,.81-4.62,9.83,9.83,0,0,1,2.5-3.7,11.8,11.8,0,0,1,4.3-2.45,19.52,19.52,0,0,1,6.22-.88,27.28,27.28,0,0,1,9.09,1.53,39.79,39.79,0,0,1,8.55,4.24,65.11,65.11,0,0,1,8.28,6.46c2.73,2.5,5.49,5.21,8.28,8.16h-5.92c-.63-.61-1.48-1.41-2.53-2.4s-2.27-2-3.66-3.16S601,64.14,599.32,63A46.43,46.43,0,0,0,594,59.88a34.75,34.75,0,0,0-5.79-2.26,22.14,22.14,0,0,0-6.07-.86,13.1,13.1,0,0,0-4.16.57,7.16,7.16,0,0,0-2.72,1.6,5.77,5.77,0,0,0-1.48,2.4,9.73,9.73,0,0,0-.44,2.94A20.65,20.65,0,0,0,575,71.58h7.55Z"/><path class="cls-2" d="M623.48,76.57h-7.13v45.69h-5.58V110.12l-.13,0a19.77,19.77,0,0,1-1.6,1.34,11.89,11.89,0,0,1-2.11,1.26,14.89,14.89,0,0,1-2.67.93A13.44,13.44,0,0,1,601,114a14.26,14.26,0,0,1-6.14-1.3,15.17,15.17,0,0,1-4.77-3.45,15.36,15.36,0,0,1-3.11-5,15.77,15.77,0,0,1-1.11-5.86,14.47,14.47,0,0,1,1.11-5.69,14.1,14.1,0,0,1,3-4.58,14.33,14.33,0,0,1,4.52-3A14,14,0,0,1,600,84a19.63,19.63,0,0,1,2.06.13,13.4,13.4,0,0,1,2.66.61,15.58,15.58,0,0,1,3,1.38,12.74,12.74,0,0,1,2.93,2.43l.13,0v-12H580.18v-5h43.3ZM610.91,94.89a19.63,19.63,0,0,0-4.66-4.16,10.54,10.54,0,0,0-5.71-1.58,8.89,8.89,0,0,0-4.27.95,9.13,9.13,0,0,0-2.87,2.4,9.37,9.37,0,0,0-1.63,3.21,12.25,12.25,0,0,0-.51,3.4,10.88,10.88,0,0,0,.58,3.5,9.47,9.47,0,0,0,1.72,3.11,8.53,8.53,0,0,0,6.81,3.11,10,10,0,0,0,4.28-.9,11.72,11.72,0,0,0,3.33-2.29,10.33,10.33,0,0,0,2.16-3.13,8.35,8.35,0,0,0,.77-3.37Z"/><path class="cls-2" d="M645.51,84.12V76.57H621.1v-5h52.76v5h-7.14v49.08h-5.58V113.89l-.13,0a18.85,18.85,0,0,1-3.71,3.23,20.14,20.14,0,0,1-4,2,19.61,19.61,0,0,1-3.89,1.05,21.48,21.48,0,0,1-3.5.31,18.07,18.07,0,0,1-5.45-.77,12.48,12.48,0,0,1-4.13-2.12,9.16,9.16,0,0,1-3.51-7.31,9.3,9.3,0,0,1,.82-4,11.68,11.68,0,0,1,1.9-2.89l0-.14a12.83,12.83,0,0,1-4.2-1.6,10.05,10.05,0,0,1-2.7-2.39,8.43,8.43,0,0,1-1.44-2.89,11.44,11.44,0,0,1-.43-3.11,10.85,10.85,0,0,1,.6-3.66,7.18,7.18,0,0,1,1.85-2.88,8.62,8.62,0,0,1,3.14-1.89,13.42,13.42,0,0,1,4.51-.68Zm5.57,5H637.83a11.61,11.61,0,0,0-2.06.17A4.69,4.69,0,0,0,634,90a3.6,3.6,0,0,0-1.26,1.36,4.65,4.65,0,0,0-.48,2.26,4.78,4.78,0,0,0,.73,2.75,5,5,0,0,0,2,1.65,9,9,0,0,0,2.82.8,27.34,27.34,0,0,0,3.33.2,48.87,48.87,0,0,0,5.37-.3q2.71-.32,4.86-.72v5.17c-.66.14-1.36.26-2.12.37s-1.53.21-2.31.28-1.57.12-2.37.16-1.54.07-2.24.07h-.92a6,6,0,0,0-1,1,7.82,7.82,0,0,0-1,1.45,8.92,8.92,0,0,0-.73,1.76,6.43,6.43,0,0,0-.29,1.94,4.52,4.52,0,0,0,.56,2.33,4.59,4.59,0,0,0,1.53,1.6,6.9,6.9,0,0,0,2.31.93,12.67,12.67,0,0,0,2.91.31,14.78,14.78,0,0,0,5.2-.92,19.93,19.93,0,0,0,7.95-5.44,17.59,17.59,0,0,0,2.34-3.26V76.57H651.08Z"/><path class="cls-2" d="M691.94,76.57H684.8v45.69h-5.57V76.57h-7.75v-5h20.46Z"/><path class="cls-2" d="M741.67,76.57h-7.14v45.72H729V90.44a10.06,10.06,0,0,0-3.39-.64,6.1,6.1,0,0,0-2.79.59,5.86,5.86,0,0,0-2,1.58,7.06,7.06,0,0,0-1.21,2.31,9.56,9.56,0,0,0-.4,2.79,11.57,11.57,0,0,0,.05,1.17q0,.6.12,1.17h-5.21c-.18-1.31-.39-2.57-.62-3.77a13.18,13.18,0,0,0-1-3.16,6,6,0,0,0-1.72-2.16,4.39,4.39,0,0,0-2.72-.8,5.5,5.5,0,0,0-2.74.65,5.39,5.39,0,0,0-1.88,1.8,8.42,8.42,0,0,0-1.11,2.7A15.38,15.38,0,0,0,702,98a17.47,17.47,0,0,0,1.32,7,19.63,19.63,0,0,0,3.59,5.53,26.92,26.92,0,0,0,5.23,4.36,58.55,58.55,0,0,0,6.27,3.52l-2.75,4.69a35.31,35.31,0,0,1-3.14-1.63,38.94,38.94,0,0,1-4.08-2.69,41,41,0,0,1-4.34-3.73,29.72,29.72,0,0,1-3.92-4.8,24.91,24.91,0,0,1-2.84-5.84,21.15,21.15,0,0,1-1.09-6.9,16.62,16.62,0,0,1,.82-5.32,13,13,0,0,1,2.33-4.29A10.7,10.7,0,0,1,707.78,84a8.91,8.91,0,0,1,5.86,2,8.82,8.82,0,0,1,1.72,1.8c.45.64.85,1.25,1.19,1.82l.17,0a9.15,9.15,0,0,1,1.54-2.41,8.05,8.05,0,0,1,2-1.6,8.34,8.34,0,0,1,2.26-.9,10.13,10.13,0,0,1,2.38-.29,12.31,12.31,0,0,1,2.09.19,11.52,11.52,0,0,1,2,.53V76.57H689.56v-5h52.11Z"/><path class="cls-2" d="M785,76.57h-7.14v45.69h-5.57V106.35l-.14,0a15.41,15.41,0,0,1-2.19,1.48,17.29,17.29,0,0,1-2.84,1.29,22.84,22.84,0,0,1-3.36.92,19.24,19.24,0,0,1-3.78.36,14.71,14.71,0,0,1-6.74-1.43,13.79,13.79,0,0,1-4.69-3.82,19.12,19.12,0,0,1-3-5.47A33.91,33.91,0,0,1,744,93.23a13.54,13.54,0,0,0,3.84-1.06,8.41,8.41,0,0,0,2.58-1.78,6.65,6.65,0,0,0,1.45-2.26,7.08,7.08,0,0,0,.46-2.45,12.84,12.84,0,0,0-.16-1.83,14.11,14.11,0,0,0-.52-2.2,19.76,19.76,0,0,0-1-2.46,19.48,19.48,0,0,0-1.53-2.62h-9.82v-5H785Zm-29.84,0a19.8,19.8,0,0,1,1.92,4.54,17.9,17.9,0,0,1,.69,4.84,12.62,12.62,0,0,1-.45,3.37,10.42,10.42,0,0,1-1.42,3,11,11,0,0,1-2.36,2.52,11.29,11.29,0,0,1-3.28,1.75,13.85,13.85,0,0,0,1.5,3.89,9.46,9.46,0,0,0,2.24,2.65,8.33,8.33,0,0,0,2.89,1.51,11.9,11.9,0,0,0,3.43.48,15.2,15.2,0,0,0,9.62-3.43,14,14,0,0,0,2.35-2.45V76.57Z"/><path class="cls-2" d="M378.33,165.05c.27.85.59,1.78.95,2.78a30.19,30.19,0,0,0,1.29,3,28.43,28.43,0,0,0,1.69,3,13,13,0,0,0,2.15,2.55,9.94,9.94,0,0,0,2.68,1.78,8.54,8.54,0,0,0,6.25.15,5.29,5.29,0,0,0,2-1.38,5.52,5.52,0,0,0,1.1-2,9,9,0,0,0,.34-2.45,5.24,5.24,0,0,0-2-4.38,9.38,9.38,0,0,0-5.86-1.58c-.31,0-.62,0-.92,0l-.93.08v-4.13l.4,0h.2A11,11,0,0,0,391,162a7.75,7.75,0,0,0,2.48-1.29,5.64,5.64,0,0,0,1.53-1.9,5.35,5.35,0,0,0,.51-2.29,4.56,4.56,0,0,0-.38-1.93,4.09,4.09,0,0,0-1-1.41,4.34,4.34,0,0,0-1.55-.86,6.45,6.45,0,0,0-2-.29,10.63,10.63,0,0,0-1.41.1,10.28,10.28,0,0,0-1.44.3,14.47,14.47,0,0,0-1.62.53q-.86.33-1.95.81l-1.55-3.72a23.17,23.17,0,0,1,4.08-1.56,15,15,0,0,1,4-.53,10.21,10.21,0,0,1,3.63.62,8.75,8.75,0,0,1,2.88,1.73,7.72,7.72,0,0,1,1.89,2.62,8,8,0,0,1,.68,3.29q0,4.88-4.65,7.83v.11a10.6,10.6,0,0,1,3,1.88c.52.09,1.08.16,1.67.22s1.13.08,1.62.08a12.92,12.92,0,0,0,1.6-.11,8.83,8.83,0,0,0,1.73-.41,9.29,9.29,0,0,0,1.79-.84,10.72,10.72,0,0,0,1.84-1.42V148.54h10.17v4h-5.71v36.54h-4.46V168.42l-.11,0a9.2,9.2,0,0,1-2.91,1.36,11.85,11.85,0,0,1-2.8.33c-.31,0-.63,0-.95-.05l-1-.09,0,.11a7.56,7.56,0,0,1,.44,2.74,11.08,11.08,0,0,1-.73,4.08,9.41,9.41,0,0,1-2.11,3.25,9.55,9.55,0,0,1-3.32,2.14,11.84,11.84,0,0,1-4.36.76,11.48,11.48,0,0,1-4.67-.91,15.1,15.1,0,0,1-3.75-2.35,17.33,17.33,0,0,1-2.92-3.25,28.76,28.76,0,0,1-2.15-3.63,30.37,30.37,0,0,1-1.47-3.47q-.57-1.65-.84-2.73Z"/><path class="cls-2" d="M449.52,152.54H416.73v-4h32.79Zm2.58,12a12.92,12.92,0,0,0-3.53-2,9.52,9.52,0,0,0-3.24-.64,6.26,6.26,0,0,0-2.23.39,5.06,5.06,0,0,0-1.79,1.17,5.34,5.34,0,0,0-1.19,1.92,7.62,7.62,0,0,0-.42,2.64c0,.3,0,.61,0,.92s.06.62.1.93h-4.16c-.15-1.09-.31-2.12-.48-3.08a10.18,10.18,0,0,0-.75-2.51,4.32,4.32,0,0,0-1.29-1.7,3.21,3.21,0,0,0-2.05-.63,3.56,3.56,0,0,0-2,.55,4.35,4.35,0,0,0-1.4,1.51,7.32,7.32,0,0,0-.81,2.27,14.86,14.86,0,0,0-.26,2.85,15.12,15.12,0,0,0,1,5.73,17.22,17.22,0,0,0,2.75,4.58,20.56,20.56,0,0,0,4,3.63,44.17,44.17,0,0,0,4.7,2.89l-2.2,3.76a22.63,22.63,0,0,1-2.4-1.34,31.66,31.66,0,0,1-3.12-2.23,33.22,33.22,0,0,1-3.32-3.08,24.2,24.2,0,0,1-3-3.93,22.12,22.12,0,0,1-2.17-4.75,17.65,17.65,0,0,1-.85-5.53,15.71,15.71,0,0,1,.63-4.56,11.28,11.28,0,0,1,1.78-3.59,8.27,8.27,0,0,1,2.79-2.35,7.84,7.84,0,0,1,3.64-.84,6.87,6.87,0,0,1,2.6.45,7.25,7.25,0,0,1,1.89,1.11,8.05,8.05,0,0,1,1.32,1.44c.35.52.65,1,.91,1.46l.13,0a7.63,7.63,0,0,1,2.74-3.32,7,7,0,0,1,3.82-1.08,11.16,11.16,0,0,1,3.8.75,19.23,19.23,0,0,1,4.41,2.37Zm27.14-12h-5.71v36.54h-4.46V173.83h-15v3.23c0,.57,0,1.06-.06,1.5a3.2,3.2,0,0,1-.3,1.09,1.56,1.56,0,0,1-.66.66,2.25,2.25,0,0,1-1.12.23,3.66,3.66,0,0,1-1.58-.42,9.4,9.4,0,0,1-1.77-1.14,15.52,15.52,0,0,1-1.74-1.63,16.77,16.77,0,0,1-1.51-1.9,11.68,11.68,0,0,1-1.07-2,4.73,4.73,0,0,1-.41-1.79,2,2,0,0,1,.2-.94,1.46,1.46,0,0,1,.57-.56,2.75,2.75,0,0,1,.89-.25,8.17,8.17,0,0,1,1.17-.07h2.93V152.54h-9.81v-4h39.4Zm-25.13,0v17.32h15V152.54Z"/><path class="cls-2" d="M487.61,149.3h-3.94l-2.47-4.65a38.48,38.48,0,0,0-2.87-4.7,13.75,13.75,0,0,0-2.45-2.65,5.81,5.81,0,0,0-2.27-1.17,9.87,9.87,0,0,0-2.34-.26H466v-4.41h5a14.67,14.67,0,0,1,2.86.26,7.83,7.83,0,0,1,2.43.93,9.83,9.83,0,0,1,2.26,1.84,25.15,25.15,0,0,1,2.35,3c.83,1.24,1.75,2.73,2.73,4.46s2.12,3.77,3.39,6.13Zm6.1,3.24H488v36.54h-4.46V152.54h-6.2v-4h16.37Z"/><path class="cls-2" d="M533.54,152.54h-8.1v10H511.82a4.94,4.94,0,0,0-2.79.57,2.14,2.14,0,0,0-.78,1.85,6,6,0,0,0,.17,1.36,3.73,3.73,0,0,0,.59,1.32,3.39,3.39,0,0,0,1.19,1,4.13,4.13,0,0,0,1.91.39h7.7a11.1,11.1,0,0,1,4,.65,6.47,6.47,0,0,1,4.06,4.49,12.22,12.22,0,0,1,.44,3.32,13.52,13.52,0,0,1-.8,4.62,11.14,11.14,0,0,1-6.31,6.58,13.88,13.88,0,0,1-5.48,1,17.16,17.16,0,0,1-6.51-1.27,20.26,20.26,0,0,1-5.71-3.52,23.85,23.85,0,0,1-4.57-5.36,26.78,26.78,0,0,1-3.09-6.8l3.78-1.49a27.17,27.17,0,0,0,2.53,5.38,22,22,0,0,0,3.66,4.57,17.32,17.32,0,0,0,4.58,3.17,12.15,12.15,0,0,0,5.27,1.18,10,10,0,0,0,3.5-.57,7.31,7.31,0,0,0,2.62-1.63,7,7,0,0,0,1.66-2.54,9.23,9.23,0,0,0,.57-3.33,6.4,6.4,0,0,0-.3-2.14,2.65,2.65,0,0,0-.94-1.29,3.86,3.86,0,0,0-1.61-.64,13.25,13.25,0,0,0-2.34-.18h-7.13a6.71,6.71,0,0,1-3.48-.87,7.91,7.91,0,0,1-2.43-2.2,9.5,9.5,0,0,1-1.43-3,11.27,11.27,0,0,1-.46-3.11,6.1,6.1,0,0,1,.52-2.68,4.25,4.25,0,0,1,1.41-1.71,5.68,5.68,0,0,1,2.14-.91,11.83,11.83,0,0,1,2.67-.28H521v-6H491.8v-4h41.74Zm-20.88,43.72a3.49,3.49,0,0,1,.91-2.51,3.11,3.11,0,0,1,2.38-1,3.17,3.17,0,0,1,1.29.27,3.23,3.23,0,0,1,1.07.75,3.37,3.37,0,0,1,.72,1.12,3.53,3.53,0,0,1,.26,1.4,3.47,3.47,0,0,1-.91,2.5,3.16,3.16,0,0,1-2.38,1,3.41,3.41,0,0,1-1.32-.26,3.24,3.24,0,0,1-1.06-.73,3.48,3.48,0,0,1-.7-1.12A3.53,3.53,0,0,1,512.66,196.26Z"/><path class="cls-2" d="M548,152.54H542.3v36.54h-4.46V152.54h-6.2v-4H548Z"/><path class="cls-2" d="M554.8,181.29c.5,0,.67.28,1.39,1.39a5.47,5.47,0,0,1,1.22,2.89,8.76,8.76,0,0,1-.72,2.68,32.82,32.82,0,0,1-4.4,7.4c-.39.34-.61.67-.95.67a.61.61,0,0,1-.44-.55c0-.28.33-.67.44-1A9.85,9.85,0,0,0,553,190c0-3.17-2.34-4.06-2.34-4.84C550.62,183.18,553.13,181.29,554.8,181.29Z"/><path class="cls-2" d="M617.87,152.54H609a14.49,14.49,0,0,1,1.21,3,11.86,11.86,0,0,1,.42,3.1,10.5,10.5,0,0,1-.32,2.56,9.91,9.91,0,0,1-1,2.36,8.55,8.55,0,0,1-1.57,2,9.13,9.13,0,0,1-2.21,1.58v.16a12.77,12.77,0,0,1,4.5,4.38,12.06,12.06,0,0,1,1.68,6.47,14.13,14.13,0,0,1-.66,4.29,10.41,10.41,0,0,1-2,3.68,9.89,9.89,0,0,1-3.52,2.57,12.51,12.51,0,0,1-5.12,1,14.76,14.76,0,0,1-5.88-1.15,17.39,17.39,0,0,1-4.76-3,22.21,22.21,0,0,1-3.71-4.3,33.83,33.83,0,0,1-2.74-5,40.76,40.76,0,0,1-2.86-9.61l3.56-1.63a35.1,35.1,0,0,0,1.13,4.7,34.33,34.33,0,0,0,1.82,4.7,30.08,30.08,0,0,0,2.46,4.33,19.74,19.74,0,0,0,3.06,3.56,14.06,14.06,0,0,0,3.61,2.41,9.84,9.84,0,0,0,4.12.88,9.16,9.16,0,0,0,2.59-.37,5.7,5.7,0,0,0,2.27-1.25,6.55,6.55,0,0,0,1.62-2.35,9.44,9.44,0,0,0,.62-3.64q0-4.34-2.51-6.52t-7.47-2.19l-1,0-1.17.08v-4.13l.61,0c.26,0,.62,0,1.08,0a15.28,15.28,0,0,0,4.35-.54,8,8,0,0,0,2.92-1.51,5.73,5.73,0,0,0,1.64-2.24,7.16,7.16,0,0,0,.52-2.75,8.88,8.88,0,0,0-.53-3.07,11.66,11.66,0,0,0-1.4-2.69H576.73v-4h41.14Z"/><path class="cls-2" d="M656.35,152.54h-5.71v36.54h-4.43V165.21h-8.4a17.61,17.61,0,0,0-3.25.26,6,6,0,0,0-2.41.95,4.29,4.29,0,0,0-1.49,1.93,8.24,8.24,0,0,0-.52,3.19,13.74,13.74,0,0,0,.81,4.8A19.67,19.67,0,0,0,633,180.4a23.22,23.22,0,0,0,2.81,3.39q1.53,1.54,3,2.85l-2.72,3.1c-.16-.1-.53-.36-1.11-.81a22.72,22.72,0,0,1-2-1.8,30.11,30.11,0,0,1-2.46-2.78,23.67,23.67,0,0,1-4.18-8.21,19.4,19.4,0,0,1-.7-5.33,13.25,13.25,0,0,1,.3-3,9.22,9.22,0,0,1,1-2.49l0-.08h-7.67v-4h27v-8.64H616v-4h40.38Z"/><path class="cls-2" d="M683.57,152.54H673.32a27.73,27.73,0,0,1,2.24,4.88,15.43,15.43,0,0,1,.86,5,11.76,11.76,0,0,1-.59,3.71,10,10,0,0,1-1.71,3.18,8.73,8.73,0,0,1-2.8,2.29,9.05,9.05,0,0,1-3.85,1l-.05.14a56,56,0,0,0,5.49,7.19,51,51,0,0,0,7,6.43L677,189.74a45.67,45.67,0,0,1-4.39-3.72q-2.07-2-3.93-4.13t-3.44-4.32c-1.06-1.46-2-2.89-2.91-4.27s-1.66-2.72-2.35-4-1.28-2.44-1.76-3.49l3.72-2a11,11,0,0,0,2.22,3.34,4,4,0,0,0,2.87,1.21,3.78,3.78,0,0,0,2.09-.6,5.29,5.29,0,0,0,1.55-1.54,7.24,7.24,0,0,0,.95-2.07,7.84,7.84,0,0,0,.33-2.21,9.8,9.8,0,0,0-.33-2.52,17.78,17.78,0,0,0-.84-2.42,23.4,23.4,0,0,0-1.16-2.29c-.42-.75-.84-1.46-1.23-2.15h-14v-4h29.12Z"/><path class="cls-2" d="M698,152.54h-5.71v36.54h-4.46V152.54h-6.2v-4H698Z"/><path class="cls-2" d="M731.59,188.48a17.41,17.41,0,0,1-3.07.79,23.35,23.35,0,0,1-4.13.33,19,19,0,0,1-7.73-1.5,20.7,20.7,0,0,1-6.29-4.37,39.13,39.13,0,0,1-5.52-7.13q-2.62-4.24-5.4-9.71l3.62-2.06a10.38,10.38,0,0,0,1.94,2.78,2.91,2.91,0,0,0,2,.83,2.69,2.69,0,0,0,1.62-.51,4.19,4.19,0,0,0,1.14-1.35,7.26,7.26,0,0,0,.68-1.89,10.19,10.19,0,0,0,.23-2.12,12.89,12.89,0,0,0-.27-2.56,19.48,19.48,0,0,0-.74-2.63,23.69,23.69,0,0,0-1.07-2.55,23,23,0,0,0-1.29-2.27v0H696.13v-4h49v4h-5.71v36.54H735V175.87l-.1,0a9.88,9.88,0,0,1-6.94,2.88,9.2,9.2,0,0,1-4.1-.92,10.47,10.47,0,0,1-3.24-2.45,11.21,11.21,0,0,1-2.12-3.48,11.1,11.1,0,0,1-.07-7.89,10.71,10.71,0,0,1,1.93-3.27,9.33,9.33,0,0,1,2.94-2.27,8.32,8.32,0,0,1,3.74-.85,9,9,0,0,1,2.23.28,10.25,10.25,0,0,1,2,.76,12.53,12.53,0,0,1,1.87,1.15,21.37,21.37,0,0,1,1.72,1.43l.1,0v-8.64H712.1a31.74,31.74,0,0,1,2.17,5.15,16.76,16.76,0,0,1,.79,5.07,14,14,0,0,1-.44,3.45,9.94,9.94,0,0,1-1.34,3.1,7.93,7.93,0,0,1-2.33,2.32,7.18,7.18,0,0,1-3.37,1.08v.14a30.45,30.45,0,0,0,3.93,6.05,20.43,20.43,0,0,0,4.17,3.77,14.63,14.63,0,0,0,4.26,1.93,16.93,16.93,0,0,0,4.17.54,16.51,16.51,0,0,0,4.16-.48,24.49,24.49,0,0,0,3.32-1.07Zm3.4-22.21c-.32-.42-.73-.89-1.21-1.43a12.45,12.45,0,0,0-1.63-1.51,9.56,9.56,0,0,0-2-1.18,5.92,5.92,0,0,0-2.38-.48,5.14,5.14,0,0,0-2.35.53,6,6,0,0,0-3,3.43A7.22,7.22,0,0,0,722,168a7.07,7.07,0,0,0,.44,2.48,6.5,6.5,0,0,0,1.21,2.08,5.58,5.58,0,0,0,1.86,1.43,5.27,5.27,0,0,0,2.39.53,7.45,7.45,0,0,0,2.24-.38,6.82,6.82,0,0,0,2.32-1.25,6.93,6.93,0,0,0,1.79-2.31,7.92,7.92,0,0,0,.72-3.56Z"/><path class="cls-2" d="M733.85,140.25a3.5,3.5,0,0,1,.91-2.52,3.13,3.13,0,0,1,2.38-1,3.17,3.17,0,0,1,1.29.27,3.23,3.23,0,0,1,1.07.75,3.4,3.4,0,0,1,.73,1.11,3.75,3.75,0,0,1,.25,1.4,3.45,3.45,0,0,1-.91,2.5,3.11,3.11,0,0,1-2.38.95,3.41,3.41,0,0,1-1.32-.25,3.27,3.27,0,0,1-1.06-.74,3.74,3.74,0,0,1-.7-1.11A3.79,3.79,0,0,1,733.85,140.25Z"/><path class="cls-2" d="M785,152.54h-8.1v10H763.24a4.9,4.9,0,0,0-2.78.57,2.14,2.14,0,0,0-.78,1.85,6.54,6.54,0,0,0,.16,1.36,3.75,3.75,0,0,0,.6,1.32,3.39,3.39,0,0,0,1.19,1,4.08,4.08,0,0,0,1.91.39h7.7a11.14,11.14,0,0,1,4,.65,6.53,6.53,0,0,1,4.06,4.49,12.22,12.22,0,0,1,.44,3.32,13.29,13.29,0,0,1-.81,4.62,11.13,11.13,0,0,1-2.38,3.89,11.54,11.54,0,0,1-3.92,2.69,13.88,13.88,0,0,1-5.48,1,17.25,17.25,0,0,1-6.52-1.27A20.4,20.4,0,0,1,755,185a24.07,24.07,0,0,1-4.56-5.36,26.78,26.78,0,0,1-3.09-6.8l3.78-1.49a26.62,26.62,0,0,0,2.53,5.38,22.29,22.29,0,0,0,3.65,4.57,17.54,17.54,0,0,0,4.59,3.17,12.12,12.12,0,0,0,5.27,1.18,10,10,0,0,0,3.5-.57,7.4,7.4,0,0,0,2.62-1.63,7.09,7.09,0,0,0,1.66-2.54,9.23,9.23,0,0,0,.57-3.33,6.4,6.4,0,0,0-.3-2.14,2.65,2.65,0,0,0-.94-1.29,3.86,3.86,0,0,0-1.61-.64,13.25,13.25,0,0,0-2.34-.18h-7.13a6.71,6.71,0,0,1-3.48-.87,7.91,7.91,0,0,1-2.43-2.2,9.29,9.29,0,0,1-1.43-3,11.27,11.27,0,0,1-.46-3.11,6.25,6.25,0,0,1,.51-2.68,4.36,4.36,0,0,1,1.42-1.71,5.71,5.71,0,0,1,2.13-.91,12,12,0,0,1,2.68-.28h10.31v-6H743.23v-4H785Z"/><line class="cls-3" x1="813.5" y1="57" x2="813.5" y2="193"/></svg>